<svg xmlns="http://www.w3.org/2000/svg" xmlns:xlink="http://www.w3.org/1999/xlink" viewBox="0 0 936.21 957.09"><defs><style>.a{fill:none;}.b{fill:url(#a);}.c{fill:url(#b);}</style><linearGradient id="a" x1="44.32" y1="520.68" x2="980.53" y2="520.68" gradientUnits="userSpaceOnUse"><stop offset="0" stop-color="#1ab3ff"/><stop offset="1" stop-color="#6cf"/></linearGradient><linearGradient id="b" x1="44.32" y1="521.68" x2="980.53" y2="521.68" gradientUnits="userSpaceOnUse"><stop offset="0" stop-color="gray"/><stop offset="1" stop-color="#a6a6a6"/></linearGradient></defs><title>award</title><path class="a" d="M471.39,199.69c-144.16,19-259.92,134.74-278.89,278.89C166.19,690.11,344.06,868,555.59,841.68c144.16-19,259.92-134.74,278.89-278.89C860.79,351.26,682.92,173.38,471.39,199.69Zm42.1,585.14c-145.26,0-264.15-118.88-264.15-264.15S368.23,256.54,513.49,256.54,777.64,375.42,777.64,520.68,658.75,784.83,513.49,784.83Z" transform="translate(-44.32 -43.13)"/><path class="a" d="M577.67,439.67l-42.1-103.17c-7.34-19-34.69-19-43.14,0l-42.1,103.17L338.8,447c-21,1-29.5,27.35-13.71,41.06l85.23,71.58L384,668c-5.26,20,16.9,36.84,34.76,25.27l94.72-58.92,94.72,58.92c17.92,11.56,40-5.26,34.76-25.27L616.66,559.65l85.23-71.58c15.79-13.71,7.34-39-13.71-41.06Z" transform="translate(-44.32 -43.13)"/><path class="a" d="M688.18,447l-110.51-7.34-42.1-103.17c-7.34-19-34.69-19-43.14,0l-42.1,103.17L338.8,447c-21,1-29.5,27.35-13.71,41.06l85.23,71.58L384,668c-5.26,20,16.9,36.84,34.76,25.27l94.72-58.92,94.72,58.92c17.92,11.56,40-5.26,34.76-25.27L616.66,559.65l85.23-71.58C717.68,474.36,709.23,449.09,688.18,447Z" transform="translate(-44.32 -43.13)"/><path class="b" d="M513.49,256.54c-145.26,0-264.15,118.94-264.15,264.15S368.23,784.83,513.49,784.83,777.64,665.89,777.64,520.68,658.75,256.54,513.49,256.54Zm188.4,231.54-85.23,71.58L643,668c5.26,20-16.84,36.84-34.76,25.27l-94.72-58.92L418.77,693.3C400.91,704.86,378.75,688,384,668L410.32,559.6,325.09,488c-15.79-13.71-7.34-40,13.71-41.06l111.54-7.28,42.1-103.17c8.45-19,35.8-19,43.14,0l42.1,103.17L688.18,447C709.23,449.09,717.68,474.36,701.89,488.07Z" transform="translate(-44.32 -43.13)"/><path class="a" d="M471.39,199.69c-144.16,19-259.92,134.74-278.89,278.89C166.19,690.11,344.06,868,555.59,841.68c144.16-19,259.92-134.74,278.89-278.89C860.79,351.26,682.92,173.38,471.39,199.69Z" transform="translate(-44.32 -43.13)"/><path class="c" d="M969.22,575.44l-17.88-24.22a58.41,58.41,0,0,1,0-68.41l17.88-25.27c20-28.39,10.52-69.45-20-85.23L922.9,357.56c-22.09-11.56-34.76-36.84-30.53-61.07L897.63,267c6.3-34.76-20-67.37-55.81-68.41l-30.52-1c-25.27-1.05-47.36-17.88-53.67-42.1L749.19,126c-9.49-33.65-47.36-51.58-80-37.87l-28.4,11.62c-23.13,9.49-50.53,4.22-67.37-14.75l-20-23.13a58.2,58.2,0,0,0-87.32,2.08l-20,23.14C429.3,106,403,112.31,379.8,102.84L351.4,91.26c-32.61-13.7-69.45,4.22-78.93,38.93L264,159.67a58.41,58.41,0,0,1-53.67,43.15l-30.52,2.08c-34.76,2.09-61.07,34.76-54.71,69.45l5.26,29.5a59.39,59.39,0,0,1-29.48,62.11L74.6,380.68c-30.53,16.84-40,57.88-19,86.29L73.5,491.19a58.46,58.46,0,0,1,0,68.41L55.63,584.87c-20,28.4-10.52,69.45,20,85.23l26.31,14.75c22.09,11.56,34.74,36.84,30.53,61.07l-5.26,29.48c-6.31,34.76,20,67.37,55.79,68.41l30.53,1.05c25.27,1,47.36,17.86,53.66,42.1l8.45,29.48c9.49,33.66,47.36,51.58,80,37.87L384,942.75c23.14-9.49,50.54-4.22,67.37,14.75l20,23.13c23.13,26.31,65.22,26.31,88.42-1l20-23.13c16.82-19,43.14-25.27,66.32-15.79l28.4,11.56c32.61,13.7,69.45-4.22,78.93-38.93l8.43-29.48a58.36,58.36,0,0,1,53.66-43.14l30.53-2.09c34.76-2.08,61.07-34.74,54.71-69.45l-5.26-29.5a58.69,58.69,0,0,1,28.39-63.19l26.31-14.75C980.78,644.9,990.27,603.84,969.22,575.44ZM834.48,562.78c-19,144.16-134.74,259.92-278.89,278.89C344.06,868,166.19,690.11,192.5,478.59c19-144.16,134.74-259.92,278.89-278.89C682.92,173.38,860.79,351.26,834.48,562.78Z" transform="translate(-44.32 -43.13)"/></svg>