<?xml version="1.0" encoding="utf-8"?>
<!-- Generator: Adobe Illustrator 20.0.0, SVG Export Plug-In . SVG Version: 6.00 Build 0)  -->
<!DOCTYPE svg PUBLIC "-//W3C//DTD SVG 1.1//EN" "http://www.w3.org/Graphics/SVG/1.1/DTD/svg11.dtd">
<svg version="1.1" id="Layer_1" xmlns="http://www.w3.org/2000/svg" xmlns:xlink="http://www.w3.org/1999/xlink" x="0px" y="0px"
	 viewBox="0 0 100 100" style="enable-background:new 0 0 100 100;" xml:space="preserve">
<style type="text/css">
	.st0{fill:none;}
	.st1{fill:url(#SVGID_1_);}
	.st2{fill:url(#SVGID_2_);}
</style>
<g>
	<path class="st0" d="M50,33.5c-9.1,0-16.5,7.4-16.5,16.5S40.9,66.5,50,66.5S66.5,59.1,66.5,50S59.1,33.5,50,33.5z M51.2,54.5
		l-4,3.9l-3.9-4l-3.8-3.8l4-3.9l3.8,3.8l9.1-9l3.9,4L51.2,54.5z"/>
	<linearGradient id="SVGID_1_" gradientUnits="userSpaceOnUse" x1="1.3" y1="50.1" x2="98.8" y2="50.1">
		<stop  offset="0" style="stop-color:#808080"/>
		<stop  offset="1" style="stop-color:#A6A6A6"/>
	</linearGradient>
	<path class="st1" d="M98.4,49.4l-11.1-9.1c-0.4-0.3-1,0-1,0.5v4.7H73.5c-0.6-3.3-1.9-6.3-3.7-9l9.1-9.1l3.3,3.3
		c0.4,0.4,1,0.1,1-0.4L84.6,16c0-0.5-0.3-0.9-0.8-0.8l-14.3,1.4c-0.5,0.1-0.7,0.7-0.4,1l3.3,3.3L63.3,30c-2.7-1.8-5.7-3.1-9-3.7
		V13.7H59c0.5,0,0.8-0.6,0.5-1L50.6,1.6c-0.3-0.4-0.9-0.4-1.2,0l-9.1,11.1c-0.3,0.4,0,1,0.5,1h4.7v12.8c-3.3,0.6-6.3,1.9-9,3.7
		l-9.1-9.1l3.3-3.3c0.4-0.4,0.1-1-0.4-1L16,15.4c-0.5,0-0.9,0.3-0.8,0.8l1.4,14.3c0.1,0.5,0.7,0.7,1,0.4l3.3-3.3l9.1,9.1
		c-1.8,2.7-3.1,5.7-3.7,9H13.7V41c0-0.5-0.6-0.8-1-0.5L1.6,49.4c-0.4,0.3-0.4,0.9,0,1.2l11.1,9.1c0.4,0.3,1,0,1-0.5v-4.7h12.8
		c0.6,3.3,1.9,6.3,3.7,9l-9.1,9.1l-3.3-3.3c-0.4-0.4-1-0.1-1,0.4L15.4,84c0,0.5,0.3,0.9,0.8,0.8l14.3-1.4c0.5-0.1,0.7-0.7,0.4-1
		l-3.3-3.3l9.1-9.1c2.7,1.8,5.7,3.1,9,3.7v12.8H41c-0.5,0-0.8,0.6-0.5,1l9.1,11.1c0.3,0.4,0.9,0.4,1.2,0l9.1-11.1c0.3-0.4,0-1-0.5-1
		h-4.7v-13c3.3-0.6,6.3-1.9,9-3.7l9.1,9.1l-3.3,3.3c-0.4,0.4-0.1,1,0.4,1l14.3,1.4c0.5,0,0.9-0.3,0.8-0.8l-1.4-14.3
		c-0.1-0.5-0.7-0.7-1-0.4l-3.3,3.3l-9.1-9.1c1.8-2.7,3.1-5.7,3.7-9h12.8V59c0,0.5,0.6,0.8,1,0.5l11.1-9.1
		C98.8,50.3,98.8,49.7,98.4,49.4z M50,66.5c-9.1,0-16.5-7.4-16.5-16.5S40.9,33.5,50,33.5S66.5,40.9,66.5,50S59.1,66.5,50,66.5z"/>
	<linearGradient id="SVGID_2_" gradientUnits="userSpaceOnUse" x1="39.5" y1="49.95" x2="60.3" y2="49.95">
		<stop  offset="0" style="stop-color:#1AB3FF"/>
		<stop  offset="1" style="stop-color:#66CCFF"/>
	</linearGradient>
	<polygon class="st2" points="47.3,50.5 43.5,46.7 39.5,50.6 43.3,54.4 47.2,58.4 51.2,54.5 60.3,45.5 56.4,41.5 	"/>
</g>
</svg>
