<svg xmlns="http://www.w3.org/2000/svg" xmlns:xlink="http://www.w3.org/1999/xlink" viewBox="0 0 935.84 818.15"><defs><style>.a{fill:url(#a);}.b{fill:url(#b);}.c{fill:url(#c);}.d{fill:url(#d);}.e{fill:url(#e);}.f{fill:url(#f);}.g{fill:url(#g);}.h{fill:url(#h);}</style><linearGradient id="a" x1="782.6" y1="877.58" x2="987.34" y2="877.58" gradientUnits="userSpaceOnUse"><stop offset="0" stop-color="#1ab3ff"/><stop offset="1" stop-color="#6cf"/></linearGradient><linearGradient id="b" x1="833.9" y1="765" x2="936.18" y2="765" xlink:href="#a"/><linearGradient id="c" x1="673" y1="749" x2="905" y2="749" gradientUnits="userSpaceOnUse"><stop offset="0" stop-color="gray"/><stop offset="1" stop-color="#a6a6a6"/></linearGradient><linearGradient id="d" x1="130" y1="275" x2="362" y2="275" xlink:href="#c"/><linearGradient id="e" x1="51.5" y1="344.25" x2="251.69" y2="344.25" xlink:href="#a"/><linearGradient id="f" x1="402.61" y1="369.54" x2="799" y2="369.54" xlink:href="#c"/><linearGradient id="g" x1="224" y1="667.31" x2="619.11" y2="667.31" xlink:href="#c"/><linearGradient id="h" x1="431" y1="521.74" x2="594.19" y2="521.74" xlink:href="#a"/></defs><title>corp-sharing</title><path class="a" d="M949,901H919V889h30Zm38.29-9.54c-4.22-33.83-36.52-51.51-57.66-60l-34.22,57.66L892.33,848l8.07-20H869.64l7.69,20-3.08,40.37L840.41,831.1C818.88,839.17,787,857,782.74,891.26a12.79,12.79,0,0,0,5.39,12.39c11.53,8.07,40.74,23.49,96.87,23.49s85.34-15.35,96.87-23.42A13.31,13.31,0,0,0,987.29,891.46Z" transform="translate(-51.5 -109)"/><path class="b" d="M936.18,765c0,29.71-22.91,53.82-51.14,53.82S833.9,794.71,833.9,765,856.8,711.18,885,711.18s51.14,24.09,51.14,53.82" transform="translate(-51.5 -109)"/><path class="c" d="M734,695H720V655h14Zm0,77H720V737h14Zm0,82H720V819h14ZM714.73,695H699V655h16v40Zm0,77H699V737h16v35Zm0,82H699V819h16v35ZM806,695H790V655h16Zm0,77H790V737h16Zm-21-77H771V655h14Zm0,77H771V737h14Zm56-117h17v40H841Zm22,0h16v40H863ZM796.24,845H755V828h61.22c4.22-4,8.45-4.2,12.7-6.12l13.45-6.13c-13.83-12.3-22.31-30.37-22.31-50.73,0-36.9,30.74-66.89,66.5-66.89,5.77,0,6.44.76,18.44,2.3V614.29c0-3.46-6.89-6.29-10.33-6.29H837V589.68c0-4.6-3.84-6.68-8.45-6.68h-85c-4.6,0-9.56,2.08-9.56,6.68V608H677.45c-3.46,0-4.45,3.23-4.45,6.67V908.38c0,5,2.14,6.62,6.77,6.62H764V849h23.79C790.85,849,793.53,845,796.24,845Z" transform="translate(-51.5 -109)"/><path class="d" d="M301,182h14v39H301Zm0,81h14v36H301Zm0,82h14v36H301Zm19-124V182h16v39H320Zm0,78V263h16v36H320Zm0,82V345h16v36H320ZM228,182h17v39H228Zm0,81h17v36H228Zm21-81h14v39H249Zm0,81h14v36H249Zm-56-42H177V182h16Zm-21,0H156V182h16Zm52,134h56v16H233.68c2.71,0,5.39,5,8.45,5H270v65h84.84c4.62,0,7.16-1.13,7.16-6.14V141.15c0-3.44-1.38-6.15-4.84-6.15H301V116.17c0-4.6-5.35-7.17-10-7.17h-85c-4.61,0-8.05,2.56-8.05,7.17V135H139.94c-3.44,0-9.94,2.31-9.94,5.77v88.48c2-2.24,9.86-4.39,18.45-4.63,41.35-1.16,66.23,30,66.23,66.91,0,20.36-.65,32.93,5.44,55.16" transform="translate(-51.5 -109)"/><path class="e" d="M107.22,301.82l2.73-.82h.28l14.93-1.58c-8.21-4.71-3.85-14.72-1.84-18.19.61-1,1-1.64,1-1.64s.24.18.35.24C148,296.64,167.14,303,167.14,303c10.54,4.14,28.19,7.07,28.19,7.07-2.9,31.49-21.36,55.79-43.72,55.79-14.68,0-27.66-10.43-35.69-26.53a83.35,83.35,0,0,1-8.18-30.8A52.85,52.85,0,0,1,107.22,301.82Zm4.42,67.94c8.67-.21,16.07.63,18,3.89l-5.87-12.24c8,7.75,17.51,12.24,27.77,12.24,10.51,0,20.28-4.71,28.34-12.77l-8.41,18.78c2-3.26,9.58-4.88,18.53-5.66-3.46,6.37-12,11.57-23.13,14.08l-15.29,24.83-15.28-24.83C122.82,385,113,378,111.64,369.76ZM51.5,423.68c0,36.47,29.57,29.32,66.08,29.32h68c36.51,0,66.09,7.15,66.09-29.32,0-26.89-16.06-40-39.16-50.31,8.13.14,14.22.58,14.22.58-22.61-12.42-22-57.06-22-57.06,4-86.46-53.1-81.93-53.1-81.93l0,.15,0-.14s-57.06-4.53-53.1,81.93c0,0,.57,44.61-22,57.07,0,0,10-2,21.29-3.24C70.92,379.18,51.53,394.1,51.5,423.68Z" transform="translate(-51.5 -109)"/><path class="f" d="M799,520V388.23C799,317.15,745.48,260,674.41,260H523V227.2c0-6.28-7-9.88-12.47-7.22L406.74,279.34c-5.39,2.72-5.57,10.78-.19,14.39l104.09,59.36C516,355.8,523,352.2,523,345.87V319H674.46c41.37,0,75.54,27.8,75.54,69.23V520Z" transform="translate(-51.5 -109)"/><path class="g" d="M511.65,827.71l103.42-59.36c5.4-2.72,5.38-10.77,0-14.38l-103.4-59.36A7.92,7.92,0,0,0,500,701.82V729H347c-41.37,0-77-28.07-77-69.49V506H224V659.51C224,730.59,275.88,788,347,788H500v32.55A7.91,7.91,0,0,0,511.65,827.71Z" transform="translate(-51.5 -109)"/><path class="h" d="M576.52,505H578V481.06c0-34.71-29.76-62.38-64.5-62.38S449,446.95,449,481.06V505h.84c-9.65,0-18.84,5.64-18.84,14.65v90.69c0,9.65,10.07,14.37,19.08,14.37l127.64.1c9.65,0,16.47-9.36,16.47-16.39l-.19-.1V519.65C594,510,585.53,505,576.52,505Zm-56.11,64.16c-.63.64-3.41,1.95-3.41,3.22v19.94c0,2.57,1.95,5.15-.64,6.43-5.79,3.22-8.36-.64-8.36-6.43V572.38a4,4,0,0,0-2.36-3.22c-6.43-4.52-9.4-12.22-6.18-18.65,2.58-6.43,10.25-10.29,16.69-9,7.7,1.3,12.82,7.1,12.82,14.8C529,561.46,524.89,565.95,520.41,569.16Zm27.14-64.56-65.55.73V481.69c0-19.3,13.84-35.79,33.14-35.79s32.52,15,32.52,33.69" transform="translate(-51.5 -109)"/></svg>