<svg xmlns="http://www.w3.org/2000/svg" xmlns:xlink="http://www.w3.org/1999/xlink" viewBox="0 0 936.2 749.95"><defs><style>.a{fill:url(#a);}.b{fill:url(#b);}.c{fill:url(#c);}.d{fill:url(#d);}.e{fill:url(#e);}</style><linearGradient id="a" x1="41.59" y1="524.87" x2="977.79" y2="524.87" gradientUnits="userSpaceOnUse"><stop offset="0" stop-color="gray"/><stop offset="1" stop-color="#a6a6a6"/></linearGradient><linearGradient id="b" x1="111.68" y1="396.77" x2="824.53" y2="396.77" gradientUnits="userSpaceOnUse"><stop offset="0" stop-color="#1ab3ff"/><stop offset="1" stop-color="#6cf"/></linearGradient><linearGradient id="c" x1="111.68" y1="426.76" x2="824.53" y2="426.76" xlink:href="#b"/><linearGradient id="d" x1="111.68" y1="456.35" x2="824.53" y2="456.35" xlink:href="#b"/><linearGradient id="e" x1="263.31" y1="393.12" x2="755.92" y2="393.12" xlink:href="#b"/></defs><title>data-on-screen</title><path class="a" d="M938.28,670.63H81.1V187.51H938.28Zm-428.61,95.1a18.19,18.19,0,1,1,18.21-18.17A18.13,18.13,0,0,1,509.67,765.74ZM949.83,149.89H70.27c-15.4,0-28.68,11.71-28.68,27.11V764.36c0,15.4,13.28,28.33,28.68,28.33H416.62c-.42,8.83-3.19,46.85-21.26,65.29-14.22,14.47-34,28.12-26.28,35.11,1.85,4.31,10.73,6.77,31,6.77H627.92c23,0,31-3.74,31.1-9.39h-.78v-1.84h-.81c-1-7.59-16.37-18.79-28-30.59-18.07-18.43-20.84-56.41-21.21-65.29H949.92c15.4,0,27.87-12.94,27.87-28.33V177C977.75,161.6,965.27,149.89,949.83,149.89Z" transform="translate(-41.59 -149.89)"/><rect class="b" x="111.68" y="392.53" width="712.85" height="8.47"/><rect class="c" x="111.68" y="422.55" width="712.85" height="8.42"/><rect class="d" x="111.68" y="452.12" width="712.85" height="8.47"/><path class="e" d="M287.89,496.28a24.46,24.46,0,0,0,20.88-37.41L410.4,357.15a24.52,24.52,0,0,0,30.18-3.39l109.67,68.66a23.85,23.85,0,0,0-1.33,7.91,24.56,24.56,0,1,0,49.11,0,24.13,24.13,0,0,0-1.94-9.6l119.33-87.56a23.87,23.87,0,1,0-6.73-9L589.37,411.7a24.47,24.47,0,0,0-33.2,1.24L446.48,344.21a25.2,25.2,0,0,0,1.33-7.9,24.58,24.58,0,1,0-45.46,12.93L300.77,450.91a24.17,24.17,0,0,0-12.93-3.69,24.53,24.53,0,1,0,.05,49.06Z" transform="translate(-41.59 -149.89)"/></svg>