<svg xmlns="http://www.w3.org/2000/svg" xmlns:xlink="http://www.w3.org/1999/xlink" viewBox="0 0 458.83 283.92"><defs><style>.a{fill:#d12026;}.b{fill:url(#a);}.c{fill:url(#b);}.d{fill:url(#c);}.e{fill:url(#d);}.f{fill:url(#e);}</style><linearGradient id="a" x1="28.82" y1="43.49" x2="467.21" y2="43.49" gradientUnits="userSpaceOnUse"><stop offset="0" stop-color="#818181"/><stop offset="1" stop-color="#a7a6a6"/></linearGradient><linearGradient id="b" x1="425.89" y1="180.07" x2="454.96" y2="180.07" xlink:href="#a"/><linearGradient id="c" x1="44.51" y1="259.57" x2="232.71" y2="259.57" xlink:href="#a"/><linearGradient id="d" x1="44.51" y1="180.31" x2="232.71" y2="180.31" xlink:href="#a"/><linearGradient id="e" x1="44.51" y1="101.52" x2="232.71" y2="101.52" xlink:href="#a"/></defs><title>desk-key</title><path class="a" d="M60.51,23.11V22.4l-28.89-.19v.71Zm-46.7,1.51a2.76,2.76,0,1,0-2.74-2.78A2.76,2.76,0,0,0,13.81,24.62Zm-5.42-2.8a11.31,11.31,0,0,1,21.88-4l6.37.11,3.84-2.86,4,3,2.47-1.69L49,18.28l2.36-1.53,1.93,1.69,2-1.45,1.53,1.59,3.24.12,2.77,3.7-2.92,3-29.45-.17a11.31,11.31,0,0,1-22.12-3.4Z" transform="translate(-8.39 -10.59)"/><path class="b" d="M461.95,28.95H34.11a5.29,5.29,0,0,0-5.29,5.29V52.73A5.29,5.29,0,0,0,34.11,58H461.92a5.31,5.31,0,0,0,5.29-5.29V34.24A5.28,5.28,0,0,0,461.95,28.95Z" transform="translate(-8.39 -10.59)"/><path class="c" d="M449.67,66.49h-18.5a5.3,5.3,0,0,0-5.29,5.29V288.37a5.27,5.27,0,0,0,5.29,5.29h18.5a5.28,5.28,0,0,0,5.29-5.29V71.81A5.32,5.32,0,0,0,449.67,66.49Z" transform="translate(-8.39 -10.59)"/><path class="d" d="M44.51,283A11.5,11.5,0,0,0,56,294.52H221.23A11.48,11.48,0,0,0,232.71,283v-58.4H44.51Zm68.08-42.56h53.58a4.55,4.55,0,0,1,0,9.1H112.59a4.55,4.55,0,0,1,0-9.1Z" transform="translate(-8.39 -10.59)"/><path class="e" d="M44.51,215.53h188.2V145.08H44.51Zm68.08-54.46h53.58a4.55,4.55,0,1,1,0,9.09H112.59a4.55,4.55,0,1,1,0-9.09Z" transform="translate(-8.39 -10.59)"/><path class="f" d="M44.51,136h188.2V67.07H44.51Zm93.91-5.86a2.29,2.29,0,0,1,2.4-2.17,2.52,2.52,0,0,1,1.65.6l-3.42,3A2,2,0,0,1,138.41,130.11Zm2.4,2.17a2.59,2.59,0,0,1-1.34-.37l3.36-3a2,2,0,0,1,.38,1.17A2.29,2.29,0,0,1,140.82,132.27Zm-6.07-8.13,3.54-11.37a5.1,5.1,0,0,1-1.87-4,4.55,4.55,0,1,1,9.06,0,5.11,5.11,0,0,1-1.87,4l3.54,11.37Zm4.23-25a2,2,0,0,1-.56-1.38,2.29,2.29,0,0,1,2.4-2.17,2.52,2.52,0,0,1,1.57.54Zm3.8-2.63a2,2,0,0,1,.44,1.25,2.29,2.29,0,0,1-2.4,2.17,2.53,2.53,0,0,1-1.42-.43ZM112.12,83h53.56a4.55,4.55,0,1,1,0,9.1H112.12a4.55,4.55,0,0,1,0-9.1Z" transform="translate(-8.39 -10.59)"/></svg>