<svg xmlns="http://www.w3.org/2000/svg" xmlns:xlink="http://www.w3.org/1999/xlink" viewBox="0 0 947.52 961.59"><defs><style>.a{fill:url(#a);}.b{fill:url(#b);}.c{fill:url(#c);}.d{fill:url(#d);}.e{fill:url(#e);}.f{fill:url(#f);}.g{fill:url(#g);}</style><linearGradient id="a" x1="201.35" y1="631.71" x2="580.12" y2="631.71" gradientUnits="userSpaceOnUse"><stop offset="0" stop-color="gray"/><stop offset="1" stop-color="#a6a6a6"/></linearGradient><linearGradient id="b" x1="393.9" y1="918.43" x2="493.25" y2="918.43" xlink:href="#a"/><linearGradient id="c" x1="125.01" y1="561.73" x2="659.96" y2="561.73" xlink:href="#a"/><linearGradient id="d" x1="287.87" y1="858.04" x2="442.55" y2="858.04" xlink:href="#a"/><linearGradient id="e" x1="452.64" y1="494.63" x2="495.83" y2="494.63" xlink:href="#a"/><linearGradient id="f" x1="42.36" y1="509.01" x2="985.76" y2="509.01" xlink:href="#a"/><linearGradient id="g" x1="447.83" y1="719.28" x2="989.88" y2="719.28" gradientUnits="userSpaceOnUse"><stop offset="0" stop-color="#1ab3ff"/><stop offset="1" stop-color="#6cf"/></linearGradient></defs><title>fingerprint</title><path class="a" d="M417.18,528.17c-1-22-1.93-44.08-1.93-67.09a60.14,60.14,0,0,1,60.4-60.4c32.59,0,58.47,26.84,60.4,61.35,1,12.45,10.54,21.09,23,21.09,12.45-1,21.07-10.54,21.07-23-2.87-57.52-47.91-102.56-103.53-102.56-57.52,0-103.53,47-103.53,103.53,0,24,1,47,1.93,69,5.74,114.06,10.54,204.17-164.88,336.46a22.66,22.66,0,0,0-4.8,30.67c3.83,5.75,10.54,8.63,17.25,8.63,4.79,0,9.59-1,13.42-4.8C428.68,755.36,423.88,649.92,417.18,528.17Z" transform="translate(-42.36 -28.76)"/><path class="b" d="M483.31,864.64c-10.55-6.72-24-3.83-29.72,6.72a452.61,452.61,0,0,1-53.68,68.05c-8.62,8.63-7.67,23,1,30.67,3.83,3.83,9.59,5.75,15.34,5.75a22.46,22.46,0,0,0,16.3-6.72A490.78,490.78,0,0,0,491,894.37C495.76,884.76,492.9,871.36,483.31,864.64Z" transform="translate(-42.36 -28.76)"/><path class="c" d="M334.72,512.83c-1-17.24-1.9-34.51-1.9-51.75,0-78.62,64.22-142.84,142.82-142.84,70,0,128.45,49.85,140.92,117.9,1.9,11.5,13.4,20.14,24.91,18.22s20.14-13.42,18.22-24.92A186.08,186.08,0,0,0,476.59,275.1c-102.56,0-186,83.4-186,186,0,18.21,1,35.46,1.9,53.68C298.31,619.24,303.1,718,136.3,807.13a22,22,0,0,0-8.63,29.72,21.09,21.09,0,0,0,19.17,11.5c3.83,0,6.72-1,10.55-2.88C346.22,743.86,339.52,621.16,334.72,512.83Z" transform="translate(-42.36 -28.76)"/><path class="d" d="M431.55,769.73a22,22,0,0,0-29.71,8.63c-24.94,44.09-60.4,87.22-107.36,133.24a22.32,22.32,0,0,0-1,30.67c3.83,4.8,9.59,6.72,15.34,6.72s10.54-1.92,15.34-5.75c49.85-47.93,88.19-94.89,115-142.84C445.92,788.91,442.08,775.5,431.55,769.73Z" transform="translate(-42.36 -28.76)"/><path class="e" d="M474.69,440A21.71,21.71,0,0,0,452.64,462v66.13c0,11.5,9.59,21.1,22.06,21.1h0c12.45,0,22-9.6,21.07-22.06v-67.1C496.73,449.58,487.14,440,474.69,440Z" transform="translate(-42.36 -28.76)"/><path class="f" d="M885.92,867.53c-48.9,55.58-123.65,83.39-197.47,74.75-99.69-12.45-181.18-93.93-193.63-193.62-8.62-65.18,10.55-128.47,54.63-178.31,43.14-47.91,104.49-75.72,168.71-75.72,9.6,0,19.17,1,29.72,1.92C847.57,509,929,590.49,941.51,690.18,948.22,755.36,929,818.63,885.92,867.53ZM723,213.76c-66.15-66.13-154.34-102.56-248.27-102.56S293.51,147.62,227.36,213.76,124.8,368.09,124.8,462a341.48,341.48,0,0,0,15.34,102.58c2.87,9.57-1.92,20.12-12.47,23a17.43,17.43,0,0,1-15.34-1c-4.79-2.87-8.62-6.7-10.54-12.47A401.9,401.9,0,0,1,85.49,462c0-103.53,40.28-201.3,114.08-275.12S371.16,72.85,474.69,72.85,676,113.11,749.8,186.91,863.86,358.51,863.86,462v33.56a264.83,264.83,0,0,0-46-24.94c4.8-3.83,8.63-10.54,7.67-17.24C823.62,362.34,787.17,278,723,213.76ZM983.69,684.43c-7.67-62.3-38.34-117.91-82.44-160.09A19.49,19.49,0,0,0,907,510c1-18.21,1-34.51,1-48.88,0-116-45.06-224.32-126.53-305.8C699,73.82,590.67,28.76,474.69,28.76c-115,0-223.36,45.06-305.8,126.53A430.85,430.85,0,0,0,42.36,461.09c0,42.18,5.75,84.36,18.22,124.6C65.37,602,77.82,616.36,93.16,624A56.7,56.7,0,0,0,121,630.75c6.7,0,14.37-1,21.09-3.83,31.63-11.5,48.9-45.06,39.29-76.69a314.21,314.21,0,0,1-13.4-89.14c0-81.49,31.63-159.14,90.09-216.66a306.21,306.21,0,0,1,216.66-90.09c82.42,0,159.11,31.63,216.62,90.09,55.61,55.61,88.19,130.37,90.12,209,0,1.9,0,3.83,1,4.79a157.78,157.78,0,0,0-30.67-5.75,233,233,0,0,0-25.89-1.92,22,22,0,0,0,15.34-23C724.87,294.28,609.84,192.68,474.69,192.68c-77.65,0-154.34,33.54-206.1,90.09-46,50.81-68.07,115-62.3,180.21,1,12.47,2.87,24,3.83,36.44C221.62,601,230.24,680.59,80.7,713.19c-11.5,2.87-19.17,14.37-16.29,25.87,1.9,10.55,11.5,17.27,21.07,17.27a8.58,8.58,0,0,0,4.8-1c187.88-41.21,175.41-158.17,163-260.74-1-11.5-2.88-24-3.83-35.48-4.79-53.68,13.42-105.43,51.76-146.66,43.14-47,108.33-75.74,173.51-75.74,113.1,0,209,84.36,223.34,196.52,1,8.63,7.67,15.34,15.34,18.21-74.77,1-147.62,33.56-197.47,91.07A270.3,270.3,0,0,0,450.72,754.4c8.63,66.15,42.18,125.58,91.06,168.71a21.62,21.62,0,0,0-22,8.63c-2.87,3.83-4.8,6.7-7.67,10.54-7.67,9.6-5.75,23,3.83,30.67a22.88,22.88,0,0,0,13.42,4.8c6.72,0,13.42-2.87,17.25-8.63q4.3-5.75,8.63-11.5c4.79-6.7,4.79-14.37,1.9-21.07a261.76,261.76,0,0,0,123.67,50.8c11.5,1.92,23,1.92,34.51,1.92,76.69,0,150.51-33.54,201.3-91.06C969.32,838.75,993.28,761.11,983.69,684.43Z" transform="translate(-42.36 -28.76)"/><path class="g" d="M821.6,622.22l22.86,22.86L673.23,816.33l-80-80,22.88-22.88,57.12,57.12L821.7,622.12Zm-102.76-174h0a271,271,0,0,0-271,271.12c0,149.66,121.36,271,271,271s271-121.36,271-271a271.19,271.19,0,0,0-271-271.12Z" transform="translate(-42.36 -28.76)"/></svg>