<svg xmlns="http://www.w3.org/2000/svg" xmlns:xlink="http://www.w3.org/1999/xlink" viewBox="0 0 910 722.97"><defs><style>.a{fill:url(#a);}.b{fill:url(#b);}.c{fill:url(#c);}.d{fill:url(#d);}</style><linearGradient id="a" x1="461.87" y1="234.22" x2="576.88" y2="234.22" gradientUnits="userSpaceOnUse"><stop offset="0" stop-color="gray"/><stop offset="1" stop-color="#a6a6a6"/></linearGradient><linearGradient id="b" x1="441.64" y1="775.89" x2="657.53" y2="775.89" gradientUnits="userSpaceOnUse"><stop offset="0" stop-color="#1ab3ff"/><stop offset="1" stop-color="#6cf"/></linearGradient><linearGradient id="c" x1="429.13" y1="615.03" x2="542.04" y2="615.03" xlink:href="#b"/><linearGradient id="d" x1="64" y1="506.5" x2="974" y2="506.5" xlink:href="#a"/></defs><title>id-revoke</title><path class="a" d="M554.64,214.29H484.1V182.47h70.53Zm22.24-53.43h-115V307.58h115Z" transform="translate(-64 -160.86)"/><path class="b" d="M549.59,691.93a84,84,0,1,0,84,84A84.06,84.06,0,0,0,549.59,691.93Zm0,191.9A107.94,107.94,0,1,1,657.53,775.89,108.07,108.07,0,0,1,549.59,883.83Z" transform="translate(-64 -160.86)"/><polygon class="c" points="542.04 575.54 525.08 558.57 485.59 598.06 446.09 558.57 429.13 575.54 468.62 615.03 429.13 654.52 446.09 671.49 485.59 631.99 525.08 671.49 542.04 654.52 502.54 615.03 542.04 575.54"/><path class="d" d="M906,235H595v83.36a9.71,9.71,0,0,1-9.65,9.64H453.44a9.53,9.53,0,0,1-9.44-9.64V235H132.73C95.07,235,64,265.32,64,303V709.55C64,747.21,95.07,778,132.73,778H441.5c0-1,0-1.55,0-2.38,0-33.18,15.05-63.62,38.68-82.62H133V663.59c0-54.43,154.3-71,155.21-105.22,1.15-42.06-20.88-30.09-34.49-81.27C231,392,278,363.5,310.57,356.54c10-2.11,31-2.11,41,0,32.59,7,79.56,35.41,56.84,120.56-13.65,51.18-35.72,39.2-34.56,81.27C374.73,592.63,529,609.16,529,663.59v5.73a103,103,0,0,1,20.44-2c59.52,0,107.93,48.54,107.93,108.05,0,.83,0,1.58,0,2.58H906c37.71,0,68-30.79,68-68.45V303A67.81,67.81,0,0,0,906,235ZM533,394H895v38H533Zm0,112V468H895v38ZM895,654H607V615H895Zm0-74H607V542H895Z" transform="translate(-64 -160.86)"/></svg>