<svg xmlns="http://www.w3.org/2000/svg" xmlns:xlink="http://www.w3.org/1999/xlink" viewBox="0 0 97.5 97.6"><defs><style>.a{fill:none;}.b{fill:url(#a);}.c{fill:url(#b);}</style><linearGradient id="a" x1="1.3" y1="51.9" x2="98.8" y2="51.9" gradientTransform="matrix(1, 0, 0, -1, 0, 102)" gradientUnits="userSpaceOnUse"><stop offset="0" stop-color="gray"/><stop offset="1" stop-color="#a6a6a6"/></linearGradient><linearGradient id="b" x1="40.73" y1="48.87" x2="58.93" y2="48.87" gradientUnits="userSpaceOnUse"><stop offset="0" stop-color="#1ab3ff"/><stop offset="1" stop-color="#6cf"/></linearGradient></defs><title>lock-everywhere</title><path class="a" d="M50,33.5A16.5,16.5,0,1,0,66.5,50,16.52,16.52,0,0,0,50,33.5Zm1.2,21-4,3.9-3.9-4-3.8-3.8,4-3.9,3.8,3.8,9.1-9,3.9,4Z" transform="translate(-1.3 -1.3)"/><path class="b" d="M98.4,49.4,87.3,40.3a.63.63,0,0,0-1,.5v4.7H73.5a23.84,23.84,0,0,0-3.7-9l9.1-9.1,3.3,3.3a.58.58,0,0,0,1-.4L84.6,16c0-.5-.3-.9-.8-.8L69.5,16.6a.62.62,0,0,0-.4,1l3.3,3.3L63.3,30a23.84,23.84,0,0,0-9-3.7V13.7H59a.63.63,0,0,0,.5-1L50.6,1.6a.75.75,0,0,0-1.2,0L40.3,12.7a.63.63,0,0,0,.5,1h4.7V26.5a23.84,23.84,0,0,0-9,3.7l-9.1-9.1,3.3-3.3a.58.58,0,0,0-.4-1L16,15.4c-.5,0-.9.3-.8.8l1.4,14.3a.62.62,0,0,0,1,.4l3.3-3.3L30,36.7a23.84,23.84,0,0,0-3.7,9H13.7V41a.63.63,0,0,0-1-.5L1.6,49.4a.75.75,0,0,0,0,1.2l11.1,9.1a.63.63,0,0,0,1-.5V54.5H26.5a23.84,23.84,0,0,0,3.7,9l-9.1,9.1-3.3-3.3a.58.58,0,0,0-1,.4L15.4,84c0,.5.3.9.8.8l14.3-1.4a.62.62,0,0,0,.4-1l-3.3-3.3L36.7,70a23.84,23.84,0,0,0,9,3.7V86.5H41a.63.63,0,0,0-.5,1l9.1,11.1a.75.75,0,0,0,1.2,0l9.1-11.1a.63.63,0,0,0-.5-1H54.7v-13a23.84,23.84,0,0,0,9-3.7l9.1,9.1-3.3,3.3a.58.58,0,0,0,.4,1l14.3,1.4c.5,0,.9-.3.8-.8L83.6,69.5a.62.62,0,0,0-1-.4l-3.3,3.3-9.1-9.1a23.84,23.84,0,0,0,3.7-9H86.7V59a.63.63,0,0,0,1,.5l11.1-9.1A1.29,1.29,0,0,0,98.4,49.4ZM50,66.5A16.5,16.5,0,1,1,66.5,50,16.52,16.52,0,0,1,50,66.5Z" transform="translate(-1.3 -1.3)"/><path class="c" d="M57.68,47h-1a.2.2,0,0,1-.19-.19v-2a6.79,6.79,0,0,0-6.36-6.87,6.68,6.68,0,0,0-7,6.69v2.23A.2.2,0,0,1,43,47H42a1.25,1.25,0,0,0-1.25,1.25v.79a.3.3,0,0,0,.28.28h2.83a.7.7,0,1,1,0,1.39H41a.3.3,0,0,0-.28.28v1.39a.3.3,0,0,0,.28.28h2.83a.7.7,0,0,1,0,1.39H41a.3.3,0,0,0-.28.28v1.39a.3.3,0,0,0,.28.28h2.83a.7.7,0,0,1,0,1.39H41a.3.3,0,0,0-.28.28v.84A1.25,1.25,0,0,0,42,59.81H57.68a1.25,1.25,0,0,0,1.25-1.25V48.34A1.26,1.26,0,0,0,57.68,47Zm-3.39-.19a.2.2,0,0,1-.19.19H45.56a.2.2,0,0,1-.19-.19V44.77a4.56,4.56,0,0,1,4.13-4.6,4.4,4.4,0,0,1,4.74,4.41v2.27Z" transform="translate(-1.3 -1.3)"/></svg>