<svg xmlns="http://www.w3.org/2000/svg" xmlns:xlink="http://www.w3.org/1999/xlink" viewBox="0 0 95.1 97.3"><defs><style>.a{fill:url(#a);}.b{fill:url(#b);}.c{fill:none;}.d{fill:#d20200;}.e{fill:url(#c);}</style><linearGradient id="a" x1="2.3" y1="51.5" x2="97.4" y2="51.5" gradientUnits="userSpaceOnUse"><stop offset="0" stop-color="gray"/><stop offset="1" stop-color="#a6a6a6"/></linearGradient><linearGradient id="b" x1="2.3" y1="80.4" x2="97.4" y2="80.4" xlink:href="#a"/><linearGradient id="c" x1="2.3" y1="40.15" x2="97.4" y2="40.15" xlink:href="#a"/></defs><title>marketers2</title><path class="a" d="M72.5,36.35c-1,0-11.1-.1-11.7,12,0,0-2,18.1,11.7,18.3,13.6-.2,11.7-18.3,11.7-18.3C83.6,36.25,73.5,36.35,72.5,36.35Z" transform="translate(-2.3 -0.85)"/><path class="b" d="M92.5,75.75c-5.3-3.3-11.3-6.2-11.3-6.2l-4.7,15-2.7-7.9c4.9-6.8-.3-7.1-1.3-7.1s-6.1.3-1.3,7.1l-2.8,7.8-4.7-15s-1.7.8-4.1,2.1c-.5-.4-1.1-.8-1.7-1.2-6.6-4.1-13.9-7.7-13.9-7.7l-5.9,18.5-3.4-9.7c6-8.4-.4-8.8-1.6-8.8s-7.6.4-1.6,8.8l-3.4,9.7-5.9-18.5s-7.4,3.6-13.9,7.7c-5,3.1-5.9,6.5-6,11.3V98H47.6v.1H97.4V85C97.3,81,96.5,78.35,92.5,75.75Z" transform="translate(-2.3 -0.85)"/><path class="c" d="M73.7,19.35a3.2,3.2,0,0,0,0-6.4,3.16,3.16,0,0,0-3.2,3.2A3.22,3.22,0,0,0,73.7,19.35Z" transform="translate(-2.3 -0.85)"/><path class="c" d="M82.2,19.25c.2.1.4.1.6.2s.4.1.6.1a3.2,3.2,0,0,0,0-6.4,1.27,1.27,0,0,0-.6.1,1.42,1.42,0,0,0-.6.2,3.16,3.16,0,0,0,0,5.8Z" transform="translate(-2.3 -0.85)"/><path class="c" d="M62.5,18.75a3.71,3.71,0,0,0,1.5.4A3.29,3.29,0,0,0,67.2,16a3.22,3.22,0,0,0-3.2-3.2,2.6,2.6,0,0,0-1.5.4,3.12,3.12,0,0,0-1.6,2.4v.8A3.12,3.12,0,0,0,62.5,18.75Z" transform="translate(-2.3 -0.85)"/><path class="d" d="M51.2,31A11,11,0,0,0,59.6,29a15.13,15.13,0,0,0,7.9,2.2h12A15.34,15.34,0,0,0,94.8,16,15.11,15.11,0,0,0,79.6.85h-12A15.19,15.19,0,0,0,52.4,16a14.88,14.88,0,0,0,2.8,8.8,10.58,10.58,0,0,1-4.2,4.8A.74.74,0,0,0,51.2,31Zm31-17.6a1.42,1.42,0,0,1,.6-.2,1.27,1.27,0,0,1,.6-.1,3.2,3.2,0,0,1,0,6.4c-.2,0-.4-.1-.6-.1s-.4-.1-.6-.2a3.16,3.16,0,0,1,0-5.8ZM73.7,13a3.2,3.2,0,1,1-3.2,3.2A3.16,3.16,0,0,1,73.7,13Zm-12.8,2.6a3.12,3.12,0,0,1,1.6-2.4,2.6,2.6,0,0,1,1.5-.4A3.22,3.22,0,0,1,67.2,16a3.29,3.29,0,0,1-3.2,3.2,3.71,3.71,0,0,1-1.5-.4,3.12,3.12,0,0,1-1.6-2.4Z" transform="translate(-2.3 -0.85)"/><path class="e" d="M32.9,59h.2c16.8-.2,14.4-22.7,14.4-22.7-.7-15.1-13.3-14.9-14.5-14.9s-13.8-.1-14.5,14.9C18.5,36.25,16,58.75,32.9,59Z" transform="translate(-2.3 -0.85)"/></svg>