<svg xmlns="http://www.w3.org/2000/svg" xmlns:xlink="http://www.w3.org/1999/xlink" viewBox="0 0 872.81 950.51"><defs><style>.a{fill-rule:evenodd;fill:url(#a);}.b{fill:#d20200;}</style><linearGradient id="a" x1="127.19" y1="473.44" x2="826.61" y2="473.44" gradientUnits="userSpaceOnUse"><stop offset="0" stop-color="gray"/><stop offset="1" stop-color="#a6a6a6"/></linearGradient></defs><title>no-mirror</title><path class="a" d="M574.58,385.16,438.15,498.81a11.38,11.38,0,0,0,14.58,17.46L589.12,402.62a11.36,11.36,0,1,0-14.54-17.46Zm22.73,45.44L324.5,658a11.37,11.37,0,0,0,14.58,17.45L611.88,448.06a11.37,11.37,0,0,0-14.57-17.46Zm0-136.41L324.5,521.54A11.37,11.37,0,1,0,339.08,539L611.88,311.68a11.38,11.38,0,0,0-14.57-17.5ZM479.55,859.89c160.55,0,295.52-171,295.52-386.46S640.1,87,479.55,87,184,258,184,473.44,319,859.89,479.55,859.89Zm-277-134.49c-40.31-70.91-64-157.93-64-252,0-92.6,23-178.35,62.13-248.68-20.42,13.19-41,15.08-59.67,9a43.7,43.7,0,0,1-8.22-3.56,11.37,11.37,0,1,1,11.52-19.62,23.69,23.69,0,0,0,3.82,1.57c19.62,6.44,42.51-.13,66.9-32.48,22.4-29.74,25.06-77.3,1.39-99.26-4.63-4.27-19.83-6.57-32.39-3-15.17,4.27-24,15.12-24,34.34,0,11.47,5.08,16.64,13,16.91,7,.23,12.19-3.55,12.19-7.46a11.36,11.36,0,1,1,22.73,0c0,18.36-17,30.82-35.68,30.19-20-.71-34.91-15.84-34.91-39.64,0-29.69,15.88-49.28,40.55-56.24,19.57-5.49,42.92-2,54,8.28,22.59,20.92,28.39,55.25,20.92,87.1,60.3-68,139.71-109.33,226.78-109.33,84.81,0,162.34,39.19,222,104.07-8.27-32.48-2.74-68,20.39-89.44,11-10.26,34.42-13.78,54-8.28,24.66,7,40.55,26.54,40.55,56.24,0,23.8-14.89,38.91-34.91,39.64-18.67.63-35.73-11.83-35.73-30.19a11.39,11.39,0,0,1,22.77,0c0,3.92,5.17,7.69,12.14,7.46,7.88-.26,13-5.44,13-16.91,0-19.21-8.77-30.06-23.94-34.34-12.56-3.55-27.76-1.26-32.39,3-23.67,22-21.06,69.51,1.35,99.26,24.38,32.36,47.33,38.92,66.95,32.48a26.88,26.88,0,0,0,3.84-1.57A11.37,11.37,0,0,1,821,222.55a43.57,43.57,0,0,1-8.24,3.55c-18.18,6-38.21,4.32-58.13-8,41.43,71.5,65.91,159.77,65.91,255.3,0,91.16-22.27,175.7-60.33,245.4,17.23-8.24,34.34-8.78,50.08-3.61a42.86,42.86,0,0,1,8.24,3.56A11.37,11.37,0,0,1,807,738.41a21.9,21.9,0,0,0-3.82-1.58c-19.62-6.43-42.53.14-66.91,32.49-22.4,29.74-25.06,77.29-1.35,99.26,4.58,4.27,19.8,6.57,32.34,3,15.17-4.27,24-15.11,24-34.33,0-11.47-5.08-16.64-12.95-16.92-7-.22-12.2,3.56-12.2,7.48a11.36,11.36,0,1,1-22.73,0c0-18.36,17-30.82,35.68-30.19,20,.71,34.91,15.84,34.91,39.64,0,29.69-15.84,49.26-40.53,56.24-19.58,5.48-42.93,2-54-8.28-20.65-19.12-27.26-49.54-22.54-79-59,61.91-134.76,99.12-217.37,99.12-87.43,0-167.11-41.66-227.49-110.14,8.5,32.66,3.06,68.43-20.2,90-11.07,10.26-34.42,13.76-54,8.28-24.66-7-40.55-26.55-40.55-56.24,0-23.8,14.89-38.92,34.91-39.64,18.67-.63,35.68,11.83,35.68,30.19a11.36,11.36,0,1,1-22.73,0c0-3.92-5.17-7.69-12.19-7.48-7.88.28-13,5.45-13,16.92,0,19.21,8.81,30.05,24,34.33,12.56,3.56,27.76,1.27,32.39-3,23.67-22,21-69.51-1.39-99.26-24.38-32.36-47.28-38.92-66.9-32.49a23.28,23.28,0,0,0-3.82,1.58,11.37,11.37,0,1,1-11.52-19.62,43.7,43.7,0,0,1,8.22-3.56C160.22,708.93,181.46,711.14,202.57,725.4Z" transform="translate(-127.19 -41.49)"/><path class="b" d="M643,599.41l85,85,85-85L848.59,635l-85,85,85,85L813,840.59l-85-85-85,85L607.41,805l85-85-85-85ZM728,448c-150.22,0-272,121.78-272,272S577.78,992,728,992s272-121.78,272-272S878.22,448,728,448Z" transform="translate(-127.19 -41.49)"/></svg>