<svg xmlns="http://www.w3.org/2000/svg" xmlns:xlink="http://www.w3.org/1999/xlink" viewBox="0 0 94.61 94.62"><defs><style>.a{fill:none;}.b{fill:url(#a);}.c{fill:url(#b);}.d{fill:url(#c);}</style><linearGradient id="a" x1="2.7" y1="49.75" x2="97.31" y2="49.75" gradientUnits="userSpaceOnUse"><stop offset="0" stop-color="gray"/><stop offset="1" stop-color="#a6a6a6"/></linearGradient><linearGradient id="b" x1="2.7" y1="60.94" x2="97.31" y2="60.94" gradientUnits="userSpaceOnUse"><stop offset="0" stop-color="#1ab3ff"/><stop offset="1" stop-color="#6cf"/></linearGradient><linearGradient id="c" x1="39.77" y1="48.39" x2="59.48" y2="48.39" xlink:href="#a"/></defs><title>padlock-inside</title><path class="a" d="M37.3,37.3A17.32,17.32,0,0,0,61.8,61.8a17.44,17.44,0,0,0,0-24.5A17.26,17.26,0,0,0,37.3,37.3Z" transform="translate(-2.7 -2.7)"/><path class="b" d="M49.6,79A29.25,29.25,0,1,1,75.8,62.8l6.1,6.1a36.92,36.92,0,0,0,4.5-11.8h6.2a4,4,0,0,0,4-4V46.4a4,4,0,0,0-4-4H86.4a36.72,36.72,0,0,0-5.5-13.5l4.4-4.3a4,4,0,0,0,0-5.6l-4.7-4.8a4,4,0,0,0-5.6,0l-4.4,4.3a38.74,38.74,0,0,0-13.5-5.6V6.7a4,4,0,0,0-4-4H46.4a4,4,0,0,0-4,4v6.2a36.72,36.72,0,0,0-13.5,5.5L24.6,14A4,4,0,0,0,19,14l-4.8,4.7a4,4,0,0,0,0,5.6l4.3,4.4a38.74,38.74,0,0,0-5.6,13.5H6.7a4,4,0,0,0-4,4v6.7a4,4,0,0,0,4,4h6.2a36.72,36.72,0,0,0,5.5,13.5L14,74.7a4.19,4.19,0,0,0-.1,5.8l4.7,4.8a4,4,0,0,0,5.6,0L28.6,81a38.74,38.74,0,0,0,13.5,5.6v6.2a4,4,0,0,0,4,4h6.7a4,4,0,0,0,4-4V86.6a38.23,38.23,0,0,0,12-4.6l-6.1-6.1A29.37,29.37,0,0,1,49.6,79Z" transform="translate(-2.7 -2.7)"/><path class="c" d="M95.8,89l-24-24-.9.9-1.4-1.4a25,25,0,1,0-5.1,5.1L65.8,71l-.9.9,24,24a5,5,0,0,0,7,0A4.8,4.8,0,0,0,95.8,89Zm-34-27.2a17.32,17.32,0,1,1,0-24.5A17.44,17.44,0,0,1,61.8,61.8Z" transform="translate(-2.7 -2.7)"/><path class="d" d="M58.12,46.4H57.06a.22.22,0,0,1-.2-.2V44A7.35,7.35,0,0,0,50,36.55a7.23,7.23,0,0,0-7.59,7.24V46.2a.22.22,0,0,1-.2.2H41.13a1.35,1.35,0,0,0-1.36,1.36v.85a.32.32,0,0,0,.3.3h3.07a.75.75,0,0,1,0,1.51H40.08a.32.32,0,0,0-.3.3v1.51a.32.32,0,0,0,.3.3h3.07a.75.75,0,0,1,0,1.51H40.08a.32.32,0,0,0-.3.3v1.51a.32.32,0,0,0,.3.3h3.07a.75.75,0,0,1,0,1.51H40.08a.32.32,0,0,0-.3.3v.9a1.35,1.35,0,0,0,1.36,1.36h17a1.35,1.35,0,0,0,1.36-1.36V47.81A1.36,1.36,0,0,0,58.12,46.4Zm-3.67-.2a.22.22,0,0,1-.2.2H45a.22.22,0,0,1-.2-.2V43.94a4.93,4.93,0,0,1,4.47-5,4.77,4.77,0,0,1,5.13,4.77V46.2Z" transform="translate(-2.7 -2.7)"/></svg>