<svg xmlns="http://www.w3.org/2000/svg" viewBox="0 0 88.48 75.53"><defs><style>.a{fill:#d20200;}</style></defs><title>pinochio2</title><path class="a" d="M94.38,37.28A13.43,13.43,0,0,1,92.9,42.8c-.72,1.57-1.38,2.63-2.07,4a43.59,43.59,0,0,1-3.33,5.07c-1.12,1.4-2.17,2.85-3.15,4.35-1.48,2.26-3,4.53-4.28,6.89A62.9,62.9,0,0,0,77,69.2c-.17.4-.36.83-.56,1.22A12.11,12.11,0,0,0,75.67,78c0,.06,0,.17.08.39a8.78,8.78,0,0,1-1.21.42c-.61.18-1.29.31-1.91.47-.87.23-1.74.49-2.61.75-2.07.61-4.18,1.13-6.2,1.87-2.47.9-4.67,1.59-7.31,2.82-1.3.52-2.45,1.1-3.66,1.62s-2.4,1.08-3.58,1.67-2.42,1.32-3.66,2l-.31-.45c-.63-1-1.27-2-1.88-3-.88-1.44-1.77-2.87-2.72-4.26S39,79.85,38,78.65c-.62-.8-1.15-1.42-1.88-2.39a37.38,37.38,0,0,1-3.53-5.65,12.19,12.19,0,0,1-1.35-6.37,4.08,4.08,0,0,1,1.8-3.46,4.48,4.48,0,0,1,2.33-.58c1.49-.07,3,0,4.47-.08S42.61,60,44,59.79A15.88,15.88,0,0,0,49,58a36.62,36.62,0,0,0,3.23-1.89,7.14,7.14,0,0,0,2.38-2.43,12.74,12.74,0,0,0,1.77-4.81,3.59,3.59,0,0,0-2.24-3.9,1.42,1.42,0,0,0-1.44.15,10.83,10.83,0,0,0-2.11,2,20.93,20.93,0,0,1-4.74,4.95A27.09,27.09,0,0,1,41.27,55a19.17,19.17,0,0,1-8.86,1.81,12.18,12.18,0,0,1-1.4-.19,2.88,2.88,0,0,1-2.41-2.31c-.43-1.6-.86-3.2-1.19-4.82A1.58,1.58,0,0,0,26,48.09c-3.12-.58-6.23-1.23-9.35-1.84-1.89-.38-3.78-.71-5.66-1.13A8.1,8.1,0,0,1,7.34,43.4c-2.22-1.92-1.8-4.54.7-6a6.69,6.69,0,0,1,3.53-.76q3.09,0,6.18.23c2.69.17,5.37.44,8.06.65,2.49.18,5,.35,7.48.47a8.08,8.08,0,0,0,1.91-.19A3.34,3.34,0,0,0,37.66,36a20.41,20.41,0,0,0,1.4-3,9.75,9.75,0,0,1,4.69-5.5A10.92,10.92,0,0,1,48,26.09c1.34-.17,2.68-.35,4-.49a16,16,0,0,1,2.32-.11,1,1,0,0,0,1.15-.76,13.14,13.14,0,0,0,.61-2c.44-2.56,1.25-4.93,3.38-6.6a6.93,6.93,0,0,1,5.48-1.52,24.71,24.71,0,0,1,4,.75,45.9,45.9,0,0,1,4.6,1.85,16.35,16.35,0,0,1,5.72,4.43,37.9,37.9,0,0,1,3.28,4.74,30.5,30.5,0,0,0,3,3.93,32.28,32.28,0,0,0,4.62,4.4A18,18,0,0,0,93,36.52C93.48,36.74,93.91,37,94.38,37.28ZM30.83,49.16c.07.31.09.47.14.63.38,1.19.78,2.37,1.14,3.56.31,1,.46,1.18,1.53,1.27a5,5,0,0,0,.91,0A16.56,16.56,0,0,0,41,52.76a20.89,20.89,0,0,0,2.75-1.69,21.57,21.57,0,0,0,4.37-4.63A15.56,15.56,0,0,1,51.66,43,3.15,3.15,0,0,1,55,42.56a7.89,7.89,0,0,1,1.9,1.31c2.28,2.06,2.08,5.83,1.09,8A19.58,19.58,0,0,1,55.44,56a17,17,0,0,1-4.62,3.87,16.33,16.33,0,0,1-1.69.9,23.55,23.55,0,0,1-5.81,1.74c-2.15.39-4.36.45-6.54.66a1.46,1.46,0,0,0-1.52,1.23,5.69,5.69,0,0,0,0,3.29c.52,2.09,1.67,3.63,2.88,5.54,3.24,4,2.9,3.72,5.88,7.61.92,1.2,1.67,2.43,2.59,3.72l.52.74c2.24-1.07,4.42-2.13,6.62-3.15,1.28-.6,2.58-1.21,3.91-1.68,3.12-1.1,6.27-2.13,9.41-3.18.58-.19,1.18-.32,1.75-.5.86-.26,1.72-.55,2.62-.83a16,16,0,0,1-1.22-5.13,4.68,4.68,0,0,1,0-1.08A29.59,29.59,0,0,1,72.39,62a3.13,3.13,0,0,0,.18-.66c-.73-.06-1.4-.08-2.06-.18s-.86-.44-.84-.86.43-.63.85-.68a4.76,4.76,0,0,0,2.76-1.38,9.82,9.82,0,0,0,1.39-1.61c.78-1.22,1.53-2.47,2.18-3.76a1.42,1.42,0,0,0-.54-1.94,1.58,1.58,0,0,0-1.89.8c-.06.08-.22.37-.27.46-.4.67-.66,1.15-1.09,1.8-.22.34-.45.7-1,.62-1.17-.18-2.33-.36-3.49-.56a6.6,6.6,0,0,1-.9-.26c.16-.24.4-.52.48-.62a11.85,11.85,0,0,0,2.33-5.44,1.67,1.67,0,0,0-.36-1.43,6.85,6.85,0,0,0-.55-.6,3.63,3.63,0,0,1-1-4.06c.33-1,.75-2,1.08-2.95a31.49,31.49,0,0,0,1.14-3.77c.31-1.55.24-1.6-1-2.49a18.82,18.82,0,0,0-5.2-2.88,31.07,31.07,0,0,0-10.22-1.24c-1,0-2,.22-3,.33a2.7,2.7,0,0,0,.92.54,14,14,0,0,1,4.61,3.24c.58.63.59.88.19,1.62a1.78,1.78,0,0,1-2.52.69c-.5-.28-.95-.65-1.43-1a12.58,12.58,0,0,0-7-2.4,3.43,3.43,0,0,0-3.35,2c-.35.73-.63,1.49-1,2.24-1.29,3-3.26,5.2-6.59,5.87a9.22,9.22,0,0,1-1.91.1c-1.93,0-3.86,0-5.78-.15-3-.26-5.89-.69-8.84-1-2.32-.24-4.64-.43-7-.61a7.53,7.53,0,0,0-1.82.08.84.84,0,0,0-.43,1.47,1.38,1.38,0,0,0,.61.33c1.27.34,2.53.7,3.82,1,1.59.33,3.2.53,4.79.85,1.42.28,2.84.66,4.27.9a98.19,98.19,0,0,1,9.68,2,11,11,0,0,1,1.49.45c.28.1.69.4.69.6a1.32,1.32,0,0,1-.52.89,4.42,4.42,0,0,1-2.56.83ZM90.51,38c-1.4-.73-2.08-1.17-3.35-1.94a15.47,15.47,0,0,1-1.29-.92,36.92,36.92,0,0,1-5.61-6.52,40.13,40.13,0,0,0-6.59-7.41,10.12,10.12,0,0,0-.8-.62A17.62,17.62,0,0,0,65,17.51c-2-.26-3.55.08-4.73,1.88-1.31,2-1.37,4.36-1.6,6.63l.62.12,3,.56A19.44,19.44,0,0,1,68,28.59c1.75.94,3.39,2.09,5,3.19A8.33,8.33,0,0,0,75.65,33l.78.21c.34.08.61.27.5.62a.65.65,0,0,1-.56.46c-1,0-1.95,0-2.92-.06-.19,0-.39,0-.64-.07-.14.55-.29,1.06-.39,1.58-.42,2-1.37,3.87-1.64,5.95a2.07,2.07,0,0,0,.84,2.26,3.44,3.44,0,0,1,1.46,3A6.86,6.86,0,0,1,72,50.14c-.46.84-1,1.66-1.45,2.51a1.07,1.07,0,0,0,1.52-.33c.38-.48.72-.93,1.08-1.43.49-.69.92-1.42,1.43-2.09A2.08,2.08,0,0,1,77,48,3.27,3.27,0,0,1,79,50.83a9.39,9.39,0,0,1-1.24,5,49.36,49.36,0,0,0-2.19,4.44c-.93,2.46-1.68,5-2.47,7.5a3.49,3.49,0,0,0-.19,1.58,1,1,0,0,0,.48-.53c.65-1.37,1.26-2.77,1.93-4.13a55.38,55.38,0,0,1,3.09-5.81c1.18-1.81,2.23-3.7,3.36-5.54.4-.66.85-1.3,1.3-1.93,1-1.43,2.08-2.83,3.05-4.29.67-1,1.18-2.12,1.83-3.15A24.7,24.7,0,0,0,90.51,38Z" transform="translate(-5.89 -14.51)"/><path class="a" d="M44.92,38.18c-.56-1.12-.5-1.42.37-2a4,4,0,0,1,4-.19c.28.12.53.29.8.43a2.42,2.42,0,0,0,2,.15c.34-.12.69-.35,1.1.11a2.55,2.55,0,0,1-1.33,1.7,5,5,0,0,1-.65.29c-.84.28-1,.21-1.55-.2C47.86,37.07,46.93,37,44.92,38.18Z" transform="translate(-5.89 -14.51)"/></svg>