<svg xmlns="http://www.w3.org/2000/svg" xmlns:xlink="http://www.w3.org/1999/xlink" viewBox="0 0 933.23 935.49"><defs><style>.a{fill:url(#a);}.b{fill:url(#b);}.c{fill:url(#c);}</style><linearGradient id="a" x1="689.46" y1="447.65" x2="834.63" y2="447.65" gradientUnits="userSpaceOnUse"><stop offset="0" stop-color="#1ab3ff"/><stop offset="1" stop-color="#6cf"/></linearGradient><linearGradient id="b" x1="227.61" y1="585.63" x2="1017.23" y2="585.63" xlink:href="#a"/><linearGradient id="c" x1="84" y1="303.06" x2="912.05" y2="303.06" gradientUnits="userSpaceOnUse"><stop offset="0" stop-color="gray"/><stop offset="1" stop-color="#a6a6a6"/></linearGradient></defs><title>pki</title><path class="a" d="M733.84,380a25.65,25.65,0,0,0-37.45,35.06l93.88,100.22a25.65,25.65,0,1,0,37.45-35.06Z" transform="translate(-84 -38.92)"/><path class="b" d="M501.87,506.87l7,7.4-17.71,16.59-37.95,35.56,23.91,25.53-8.94,8.39L467.43,622l.06,1-1.25-.28L444.66,622l-15.72,14.73-20.81,19.51-15.76,14.8-.71,21.46-.06,1-1-.06L369,692.8l-15.72,14.75L334.49,725.1l-15.78,14.8-.65,21.56-.06,1-1-.06-21.46-.71-15.72,14.73-29,27.06-15.51,14.36-1,21-4.07,79.41-2.65,53.82,53.86.86,79.46,1.14,21,.28,15.33-14.36L654.41,719.19l13.93-13,8.45-7.91,0,0,2.39-2.24,7,7.42a99.57,99.57,0,0,0,85.44,30.69c31.71-6.33,52.87-27,53.11-27.24,1.09-1,108.15-99.83,169.66-162.43a87.4,87.4,0,0,0,16.71-23.34,100.19,100.19,0,0,0,4.77-50.72c-8.54-36-37.35-64.31-37.69-64.64-1-1-99-103.75-169-175.8-21.12-21.75-44.41-32.91-69.21-33.17h-.85c-41.56,0-73.36,31-73.68,31.28-.82.76-81.79,75.37-159.25,141.47-24.21,20.66-36.53,43.48-36.61,67.83a83.5,83.5,0,0,0,7.51,33.84m473,50.29L791.5,670.17A47.63,47.63,0,0,1,724.14,668L681.6,622.53l-40.6,38,0,0-8.18,7.66-13.93,13L361.69,922.07l-79.41-1.19,4-79.29,29-27,53.11,1.73,1.68-53.17,18.76-17.57,53.11,1.9,1.79-53.17,20.81-19.52,53.11,1.73,1.68-53.17,31.11-29.15-23.91-25.53,16.35-15.32,0,0,39.36-36.88L539.76,471a47.44,47.44,0,0,1-10.68-18.86A46.22,46.22,0,0,1,527.14,440c0-.26-.06-.54-.06-.82a40.79,40.79,0,0,1,.22-5.2c.1-1,.21-1.94.37-2.87a38.7,38.7,0,0,1,.8-4.38,42.28,42.28,0,0,1,2.29-6.77c.37-.87.8-1.68,1.23-2.5a48.83,48.83,0,0,1,2.93-5.09c.49-.76,1-1.47,1.53-2.16a48.37,48.37,0,0,1,5.63-6.45L700.74,255.18a47.62,47.62,0,0,1,67.36,2.22L902.24,400.7l50.07,53.5A47.67,47.67,0,0,1,950.15,521.56Z" transform="translate(-84 -38.92)"/><path class="c" d="M912,335.07a88.13,88.13,0,0,0-2.82-9.55L827.5,98A89.42,89.42,0,0,0,713.25,44.18L529.9,110.09a89.4,89.4,0,0,0-53.82,114.24l3.09,8.67-21.74,7.81-43.9,15.76,10.57,29.48-10.35,3.69-8.19,17.57-.37.86-.87-.37-17.45-8.24-18.15,6.51-24.07,8.67-18.15,6.51-8.24,17.44-.37.87-.82-.37-17.51-8.3-18.26,6.56-21.63,7.74-18.26,6.56-8.19,17.55-.37.82-.82-.37-17.4-8.24L196.53,368,163,379.94l-17.84,6.34-8.34,17-31.5,63.84L84,510.39l44.07,19.84L193,559.45l17.18,7.74,17.72-6.4,248.26-89.19a84.47,84.47,0,0,1-7.55-34.13c.09-24.66,12.52-47.76,37-68.61C583,302.78,664,228.17,664.77,227.42c.31-.31,32.39-31.57,74.37-31.57H740c25.08.25,48.61,11.51,69.92,33.46" transform="translate(-84 -38.92)"/></svg>