<svg xmlns="http://www.w3.org/2000/svg" xmlns:xlink="http://www.w3.org/1999/xlink" viewBox="0 0 806.33 914.55"><defs><style>.a{fill:url(#a);}.b{fill:url(#b);}.c{fill:url(#c);}.d{fill:url(#d);}.e{fill:url(#e);}.f{fill:url(#f);}.g{fill:url(#g);}</style><linearGradient id="a" x1="367.94" y1="264.3" x2="581.91" y2="264.3" gradientUnits="userSpaceOnUse"><stop offset="0" stop-color="gray"/><stop offset="1" stop-color="#a6a6a6"/></linearGradient><linearGradient id="b" x1="654.38" y1="832.83" x2="945.33" y2="832.83" gradientUnits="userSpaceOnUse"><stop offset="0" stop-color="#1ab3ff"/><stop offset="1" stop-color="#6cf"/></linearGradient><linearGradient id="c" x1="139" y1="463.73" x2="810.74" y2="463.73" xlink:href="#a"/><linearGradient id="d" x1="132.25" y1="392.86" x2="539.46" y2="392.86" xlink:href="#a"/><linearGradient id="e" x1="208.39" y1="636.41" x2="463.26" y2="636.41" xlink:href="#a"/><linearGradient id="f" x1="132.25" y1="474.03" x2="539.46" y2="474.03" xlink:href="#a"/><linearGradient id="g" x1="132.25" y1="555.22" x2="539.46" y2="555.22" xlink:href="#a"/></defs><title>standards</title><path class="a" d="M474.85,149.21c36,0,65,29.27,65,65.78s-29,65.72-65,65.72-65-29.27-65-65.72S438.88,149.21,474.85,149.21Zm0-20.4c-47.08,0-85.39,38.79-85.39,86.18a86.12,86.12,0,0,0,18.28,53.07l-39.8,103.71,52.34-21.35,25.5,49.36,29-79.69,30.33,79.53,23.86-49.78,53,23.33L540.47,270A86.09,86.09,0,0,0,560.18,215c0-47.39-38.3-86.18-85.38-86.18Z" transform="translate(-139 -63.78)"/><path class="b" d="M855,780.74,867.27,793l-91.91,91.92L732.43,842l12.28-12.28,30.66,30.66,79.69-79.69Zm-55.15-93.4h0A145.56,145.56,0,1,0,902.72,730,145.57,145.57,0,0,0,799.85,687.33Z" transform="translate(-139 -63.78)"/><path class="c" d="M139,63.78v799.9H632.59l.05-20.4H159.4V84.18H790.34V665.49l20.4.11V63.83Z" transform="translate(-139 -63.78)"/><rect class="d" x="132.25" y="382.66" width="407.21" height="20.4"/><rect class="e" x="208.39" y="626.21" width="254.87" height="20.4"/><rect class="f" x="132.25" y="463.83" width="407.21" height="20.4"/><rect class="g" x="132.25" y="545.02" width="407.21" height="20.4"/></svg>