<svg xmlns="http://www.w3.org/2000/svg" xmlns:xlink="http://www.w3.org/1999/xlink" viewBox="0 0 926.75 941.67"><defs><style>.a{fill:url(#a);}.b{fill:url(#b);}.c{fill:url(#c);}.d{fill:#d20200;}</style><linearGradient id="a" x1="451.08" y1="730.37" x2="789.68" y2="730.37" gradientUnits="userSpaceOnUse"><stop offset="0" stop-color="gray"/><stop offset="1" stop-color="#a6a6a6"/></linearGradient><linearGradient id="b" x1="145.62" y1="577.05" x2="499.14" y2="577.05" xlink:href="#a"/><linearGradient id="c" x1="54.94" y1="704.2" x2="394.92" y2="704.2" gradientUnits="userSpaceOnUse"><stop offset="0" stop-color="#1ab3ff"/><stop offset="1" stop-color="#6cf"/></linearGradient></defs><title>sweep-under-rug</title><path class="a" d="M741.87,739.53a58.73,58.73,0,0,0,8.44-30.11,59.7,59.7,0,0,0-59.69-59.69,58.78,58.78,0,0,0-26.49,6.48,59.66,59.66,0,0,0-118.25,11.27c0,.35.1.69.1,1a74.36,74.36,0,0,0-11.53-1,71,71,0,0,0-57.87,29.87l-25.5,155.43A56.87,56.87,0,0,0,492.82,833a71.39,71.39,0,0,0,84.45-.79A71.69,71.69,0,0,0,684,825.66a57.06,57.06,0,1,0,57.88-86.13Z" transform="translate(-54.94 -50.26)"/><path class="b" d="M266.87,709.91A155.62,155.62,0,0,1,422.48,865.54l76.66-466.87a110.09,110.09,0,0,0-195.89-69L145.62,768A155.3,155.3,0,0,1,266.87,709.91Z" transform="translate(-54.94 -50.26)"/><path class="c" d="M266.87,736.06A128.91,128.91,0,0,0,166,784.37a26.17,26.17,0,0,1-45-25.26L244.2,416.48H54.94V991.92l209.23-.05A130.47,130.47,0,0,0,389.87,825.46C372.95,773.62,324.25,736.06,266.87,736.06Z" transform="translate(-54.94 -50.26)"/><path class="d" d="M832.46,552.63a13,13,0,0,1,15.64,9.81c.39,1.67,33.5,145.57,62.83,225.85h70.76S914.85,546.79,903,463.85c-13-90.39-71.76-165.91-160.13-173L694,50.26H614L665.15,302.5C601,328,555.49,390.58,555.49,463.9c0,27.57,9.08,73.81,21.09,123a84.57,84.57,0,0,1,74.1,7.85c-3.58-14.9-5.84-24.67-6.23-26.38a13.06,13.06,0,1,1,25.45-5.84c.15.69,6,26.24,15,61.5,1.86-.14,3.72-.39,5.64-.39a85.57,85.57,0,0,1,64.84,29.77c-11.81-45.51-20.16-81.61-20.94-85a13.06,13.06,0,1,1,25.45-5.84c.4,1.67,33.55,145.57,62.83,225.85h60.38c-28.94-82.64-59-213.39-60.57-220A13.26,13.26,0,0,1,832.46,552.63Z" transform="translate(-54.94 -50.26)"/></svg>