<svg xmlns="http://www.w3.org/2000/svg" xmlns:xlink="http://www.w3.org/1999/xlink" viewBox="0 0 978.03 800.7"><defs><style>.a{fill:url(#a);}.b{fill:#d20200;}.c{fill:url(#b);}</style><linearGradient id="a" x1="26.37" y1="457.14" x2="1004.4" y2="457.14" gradientUnits="userSpaceOnUse"><stop offset="0" stop-color="gray"/><stop offset="1" stop-color="#a6a6a6"/></linearGradient><linearGradient id="b" x1="26.37" y1="558.56" x2="1004.4" y2="558.56" xlink:href="#a"/></defs><title>zero-visibility</title><path class="a" d="M351.6,562.82c-6.21-17.87-10.32-37-10.32-56.81,0-95.93,78.19-174.12,174.12-174.12,20,0,38.88,4.11,56.75,10.32l82.7-82.7c-47.39-19.92-95-33-139.45-33-273.31,0-489,279.4-489,279.4s78.5,101.12,200.31,181.78Z" transform="translate(-26.37 -104.49)"/><polygon class="b" points="834.64 0 85.31 749.39 136.56 800.7 885.9 51.25 834.64 0"/><path class="c" d="M787.72,331.6,677,442.32a171.26,171.26,0,0,1,12.5,63.75c0,95.87-78.19,174.18-174.12,174.18a171.3,171.3,0,0,1-63.75-12.57l-89.41,89.53c48,17.33,99.42,28.31,153.16,28.31,209.06,0,489-279.52,489-279.52S908.71,410.81,787.72,331.6Z" transform="translate(-26.37 -104.49)"/></svg>