<svg xmlns="http://www.w3.org/2000/svg" viewBox="0 0 1280 542" width="1280" height="542px"><linearGradient id="a" gradientUnits="userSpaceOnUse" x1="640.731" y1="237.238" x2="640.731" y2="160.419"><stop offset="0" stop-color="#6A2000"/><stop offset="1" stop-color="#F00"/></linearGradient><circle fill="url(#a)" cx="640.7" cy="198.8" r="38.4"/><path d="M731.5 92.3l-1.2-1-15.5 20.4 1 .9c4.6 4.1 8.8 8.4 12.6 13.1l-21 14.4c-16.6-18.9-40.6-30.9-67.4-30.9-27.2 0-51.6 11.8-68.2 30.6l-21-13.1c21-26.1 53.1-42.9 89.2-42.9 19.1 0 38 4.8 54.7 14l1.1.6 15.6-20.5-1.5-.8c-21.3-12.3-45.5-18.8-70-18.8-77.2 0-140 62.8-140 140 0 28.1 8.4 55.3 24.2 78.6l.9 1.3 20-16.2-.7-1.1c-12.2-18.6-18.7-40.3-18.7-62.6 0-18.1 4.2-35.2 11.7-50.4l20.6 12.8c-5.5 11.6-8.6 24.6-8.6 38.4 0 50 40.7 91.4 90.7 91.4 44.7 0 82-33.5 89.3-74.5h-23.2c-7 32-34 51.4-66.2 51.4-37.5 0-68-31.1-68-68.6s30.5-66.9 68-66.9c33.1 0 60.7 21.2 66.7 56.2h23c-1.4-9-4.3-18.8-8.5-27.4l20.8-14.1c8 15.8 12.4 33.5 12.4 51.6 0 63.1-51.3 114.4-114.4 114.4-29.9 0-58.1-11.5-79.6-32.4l-.9-.9-20 16.2 1.2 1.2c26.5 26.8 61.9 41.6 99.4 41.6 77.2 0 140-62.8 140-140 .1-40.7-17.6-79.3-48.5-106z"/><g><path d="M83.7 391.5v92.3H59.1v-92.3h24.6zM158.3 391.5c5 0 9.5.7 13.6 2 4 1.3 7.5 3.2 10.3 5.5 2.9 2.3 5.1 5 6.6 8.1 1.5 3.1 2.3 6.4 2.3 9.9 0 5.4-1.4 10.1-4.2 14.1-2.8 4-7.3 7-13.6 9.1v.3c3 .7 5.5 1.7 7.5 3.2 2 1.4 3.6 3.1 4.9 5 1.3 1.9 2.2 4.1 2.7 6.4.6 2.3 1 4.7 1.2 7 .1 1.5.2 3.2.3 5.2.1 2 .3 4 .5 6.1.3 2.1.7 4 1.3 5.9.6 1.9 1.4 3.4 2.6 4.7h-24.6c-1.4-2.9-2.2-6.4-2.5-10.5-.3-4-.8-7.9-1.4-11.6-.8-4.8-2.6-8.4-5.3-10.6-2.7-2.2-7.2-3.4-13.3-3.4h-24.6V484H98v-92.3h60.3zm-8.8 41.8c5.6 0 9.9-1 12.7-3.1 2.8-2.1 4.2-5.4 4.2-10.1 0-4.5-1.4-7.7-4.2-9.8-2.8-2-7.1-3-12.7-3h-27v26h27zM203 418.9c2.5-5.9 6.1-11.1 10.8-15.5 4.7-4.4 10.5-7.8 17.3-10.3 6.8-2.5 14.5-3.8 23.1-3.8 8.7 0 16.4 1.3 23.2 3.8 6.8 2.5 12.5 5.9 17.2 10.3 4.7 4.4 8.3 9.5 10.8 15.5 2.5 5.9 3.8 12.3 3.8 19.2 0 6.7-1.3 13-3.8 18.8-2.5 5.8-6.1 10.9-10.8 15.2-4.7 4.3-10.5 7.7-17.2 10.1-6.8 2.5-14.5 3.7-23.2 3.7-8.6 0-16.3-1.2-23.1-3.7-6.8-2.5-12.6-5.8-17.3-10.1-4.7-4.3-8.3-9.4-10.8-15.2-2.5-5.8-3.8-12.1-3.8-18.8 0-6.9 1.3-13.3 3.8-19.2zm22.5 30.5c1.1 3.7 2.8 7 5.2 9.9 2.4 2.9 5.5 5.3 9.4 7 3.9 1.8 8.6 2.6 14.1 2.6s10.2-.9 14.1-2.6c3.9-1.8 7-4.1 9.4-7 2.4-2.9 4.2-6.2 5.3-9.9 1.1-3.7 1.6-7.4 1.6-11.3 0-4-.5-8-1.6-11.8-1.1-3.8-2.8-7.2-5.3-10.1-2.4-3-5.5-5.3-9.4-7.1-3.9-1.8-8.6-2.7-14.1-2.7s-10.2.9-14.1 2.7c-3.9 1.8-7 4.1-9.4 7.1-2.4 3-4.2 6.4-5.2 10.1-1.1 3.8-1.6 7.7-1.6 11.8-.1 3.8.5 7.6 1.6 11.3zM501.5 416.1c-1.5-1.9-3.4-3.6-5.6-5.1-2.2-1.5-4.8-2.6-7.6-3.4-2.8-.8-5.8-1.2-8.9-1.2-5.7 0-10.5.9-14.5 2.7-4 1.8-7.2 4.1-9.6 7.1-2.5 3-4.3 6.4-5.4 10.1-1.1 3.8-1.7 7.7-1.7 11.8 0 3.9.6 7.7 1.7 11.3 1.1 3.7 2.9 7 5.4 9.9 2.5 2.9 5.7 5.3 9.6 7 4 1.8 8.8 2.6 14.5 2.6 7.7 0 13.7-1.9 18.1-5.7 4.3-3.8 7-8.8 8-15h24.4c-.6 5.8-2.3 11-5 15.6-2.7 4.7-6.2 8.6-10.6 11.9-4.4 3.3-9.5 5.8-15.4 7.5-5.9 1.7-12.4 2.6-19.4 2.6-8.8 0-16.7-1.2-23.7-3.7s-12.9-5.8-17.8-10.1c-4.8-4.3-8.5-9.4-11.1-15.2-2.6-5.8-3.9-12.1-3.9-18.8 0-6.9 1.3-13.3 3.9-19.2s6.3-11.1 11.1-15.5 10.7-7.8 17.8-10.3c7-2.5 14.9-3.8 23.7-3.8 6.3 0 12.3.7 17.9 2.2 5.6 1.5 10.7 3.6 15.1 6.4 4.4 2.8 8.1 6.3 11 10.4 2.9 4.1 4.7 8.9 5.5 14.2h-24.4c-.6-2.2-1.6-4.3-3.1-6.3zM540.4 418.9c2.6-5.9 6.3-11.1 11.1-15.5s10.7-7.8 17.8-10.3c7-2.5 14.9-3.8 23.7-3.8 8.9 0 16.8 1.3 23.8 3.8s12.9 5.9 17.7 10.3c4.8 4.4 8.5 9.5 11.1 15.5s3.9 12.3 3.9 19.2c0 6.7-1.3 13-3.9 18.8-2.6 5.8-6.3 10.9-11.1 15.2-4.8 4.3-10.7 7.7-17.7 10.1-7 2.5-14.9 3.7-23.8 3.7-8.8 0-16.7-1.2-23.7-3.7s-12.9-5.8-17.8-10.1c-4.8-4.3-8.5-9.4-11.1-15.2-2.6-5.8-3.9-12.1-3.9-18.8 0-6.9 1.3-13.3 3.9-19.2zm23 30.5c1.1 3.7 2.9 7 5.4 9.9s5.7 5.3 9.6 7c4 1.8 8.8 2.6 14.5 2.6 5.7 0 10.5-.9 14.5-2.6 4-1.8 7.2-4.1 9.6-7 2.5-2.9 4.3-6.2 5.4-9.9 1.1-3.7 1.7-7.4 1.7-11.3 0-4-.6-8-1.7-11.8-1.1-3.8-2.9-7.2-5.4-10.1-2.5-3-5.7-5.3-9.6-7.1-4-1.8-8.8-2.7-14.5-2.7-5.7 0-10.5.9-14.5 2.7-4 1.8-7.2 4.1-9.6 7.1-2.5 3-4.3 6.4-5.4 10.1-1.1 3.8-1.7 7.7-1.7 11.8 0 3.8.6 7.6 1.7 11.3zM722.9 391.5c5.1 0 9.8.7 13.9 2s7.7 3.2 10.6 5.5c2.9 2.3 5.2 5 6.7 8.1 1.6 3.1 2.3 6.4 2.3 9.9 0 5.4-1.4 10.1-4.3 14.1-2.8 4-7.5 7-13.9 9.1v.3c3.1.7 5.7 1.7 7.7 3.2 2 1.4 3.7 3.1 5 5 1.3 1.9 2.2 4.1 2.8 6.4.6 2.3 1 4.7 1.2 7 .1 1.5.2 3.2.3 5.2.1 2 .3 4 .6 6.1.3 2.1.7 4 1.3 5.9.6 1.9 1.5 3.4 2.7 4.7h-25.2c-1.4-2.9-2.2-6.4-2.6-10.5-.3-4-.8-7.9-1.4-11.6-.9-4.8-2.7-8.4-5.5-10.6-2.8-2.2-7.3-3.4-13.7-3.4h-25.2V484H661v-92.3h61.9zm-9 41.8c5.8 0 10.1-1 13-3.1 2.9-2.1 4.3-5.4 4.3-10.1 0-4.5-1.4-7.7-4.3-9.8-2.9-2-7.2-3-13-3h-27.6v26h27.6zM857.3 391.5v17.1h-60.6v19.8h55.6v15.8h-55.6v22.6h61.9v17.1h-87.1v-92.3h85.8zM898.5 391.5v84.8h58v7.5h-67.9v-92.3h9.9zM1012.1 391.5l40.6 92.3h-10.6l-12.6-28.7h-47.1l-12.5 28.7h-10.4l41.6-92.3h11zm14.1 56.1l-20-47.3-20.7 47.3h40.7zM1103.3 391.5c4.3 0 8.5.4 12.5 1.1 4 .7 7.5 2 10.6 3.7 3 1.8 5.5 4.1 7.3 7 1.8 2.9 2.8 6.5 2.8 10.8 0 2.4-.4 4.8-1.3 7-.9 2.3-2.1 4.4-3.7 6.2-1.6 1.9-3.5 3.4-5.7 4.7-2.2 1.3-4.6 2.2-7.3 2.7v.3c6.7.8 12 3.2 15.9 7.3s5.9 9.2 5.9 15.2c0 1.5-.1 3.1-.4 5-.3 1.9-.9 3.8-1.7 5.7-.9 1.9-2.1 3.9-3.8 5.8-1.6 1.9-3.8 3.6-6.6 5s-6.1 2.6-10.1 3.5c-4 .9-8.8 1.4-14.4 1.4h-43.8v-92.3h43.8zm0 40.5c4 0 7.4-.4 10.3-1.2 2.9-.8 5.3-1.9 7.3-3.4 1.9-1.4 3.4-3.1 4.3-5 1-1.9 1.5-3.9 1.5-6.1 0-11.6-7.8-17.3-23.3-17.3h-33.9v33h33.8zm0 44.3c3.7 0 7.2-.3 10.4-.8 3.3-.6 6.2-1.6 8.7-3s4.5-3.4 5.9-5.9 2.2-5.5 2.2-9.2c0-5.9-2.3-10.4-7-13.4s-11.4-4.5-20.2-4.5h-33.9v36.9h33.9zM1160.7 465.3c1.7 3.2 4.1 5.7 7.2 7.6 3 1.9 6.6 3.3 10.8 4.1 4.2.8 8.6 1.2 13.3 1.2 2.7 0 5.7-.3 8.8-1 3.2-.7 6.2-1.8 8.9-3.3 2.8-1.5 5-3.4 6.9-5.8 1.8-2.4 2.8-5.2 2.8-8.6 0-2.6-.7-4.8-2-6.7-1.3-1.9-3-3.5-5.1-4.8-2.1-1.3-4.4-2.3-6.9-3.2-2.5-.8-5-1.5-7.4-2l-23.1-5c-3-.7-5.9-1.6-8.8-2.6-2.9-1-5.3-2.4-7.5-4.1s-3.8-3.8-5.1-6.3c-1.3-2.5-2-5.6-2-9.2 0-2.2.5-4.9 1.4-7.9 1-3 2.8-5.9 5.4-8.5 2.7-2.7 6.3-4.9 10.9-6.8 4.6-1.9 10.6-2.8 17.8-2.8 5.1 0 10 .6 14.6 1.8 4.6 1.2 8.7 3 12.2 5.4 3.5 2.4 6.3 5.4 8.3 9 2.1 3.6 3.1 7.7 3.1 12.5h-9.9c-.2-3.5-1.1-6.6-2.7-9.2s-3.7-4.8-6.2-6.6c-2.6-1.8-5.5-3.1-8.8-4-3.3-.9-6.8-1.4-10.5-1.4-3.4 0-6.6.3-9.8 1-3.1.6-5.9 1.7-8.3 3.1-2.4 1.4-4.3 3.3-5.7 5.6s-2.2 5.2-2.2 8.7c0 2.2.4 4 1.2 5.6.8 1.6 2 3 3.4 4.1 1.4 1.1 3.1 2 5 2.7 1.9.7 3.9 1.2 6 1.7l25.2 5.6c3.7.9 7.1 1.9 10.4 3.2 3.2 1.3 6.1 2.8 8.6 4.7 2.5 1.9 4.4 4.1 5.8 6.8 1.4 2.7 2.1 5.9 2.1 9.7 0 1-.1 2.4-.4 4.1-.2 1.7-.8 3.6-1.7 5.5-.9 1.9-2.2 3.9-3.9 5.9-1.7 2-4 3.8-7 5.4-2.9 1.6-6.6 2.9-10.9 3.9-4.3 1-9.6 1.5-15.7 1.5s-11.7-.6-17-1.9c-5.2-1.2-9.7-3.2-13.3-5.8s-6.5-5.9-8.5-10-2.8-8.9-2.5-14.6h9.9c.4 4.6 1.2 8.5 2.9 11.7zM412.5 438.1c0-10.3 2.5-19.8 8.5-27.8V391h-23v62h-2.1l-49-62H320v92h27v-60h-1.3l48.9 60H421v-17c-6-8-8.5-17.5-8.5-27.9z"/><linearGradient id="b" gradientUnits="userSpaceOnUse" x1="254.777" y1="452.945" x2="254.777" y2="424.61"><stop offset="0" stop-color="#6A2000"/><stop offset="1" stop-color="#F00"/></linearGradient><circle fill="url(#b)" cx="254.8" cy="438.8" r="14.2"/></g></svg>