<svg xmlns="http://www.w3.org/2000/svg" xmlns:xlink="http://www.w3.org/1999/xlink" viewBox="0 0 106.75 109.75"><defs><style>.a{fill:url(#a);}.b{fill:url(#b);}.c{font-size:18px;fill:#fff;font-family:SourceSansPro-Bold, Source Sans Pro;}.d{font-weight:700;}.e{font-size:21px;}.f,.l{font-size:9px;}.f,.p{font-family:SourceSansPro-Light, Source Sans Pro;}.g{letter-spacing:-0.01em;}.h,.n{letter-spacing:-0.01em;}.i,.j,.k,.l{font-family:SourceSansPro-It, Source Sans Pro;}.i,.j,.k,.m,.n,.o{font-style:italic;}.i,.o{letter-spacing:0em;}.j{letter-spacing:-0.01em;}.p{letter-spacing:0em;}.q{font-size:6px;font-family:SourceSansPro-Regular, Source Sans Pro;}.r{letter-spacing:-0.01em;}.s{letter-spacing:-0.02em;}</style><linearGradient id="a" x1="51.31" y1="7.48" x2="51.31" y2="60.85" gradientUnits="userSpaceOnUse"><stop offset="0" stop-color="#fbe12b"/><stop offset="1" stop-color="#be9a1a"/></linearGradient><linearGradient id="b" x1="68" y1="10.48" x2="68" y2="117.23" gradientUnits="userSpaceOnUse"><stop offset="0" stop-color="#f9515a"/><stop offset="1" stop-color="#a80007"/></linearGradient></defs><title>90PctAppLayer</title><path class="a" d="M67,60.85,35.63,17.67A51.14,51.14,0,0,1,67,7.48Z" transform="translate(-14.63 -7.48)"/><path class="b" d="M68,63.85V10.48A53.38,53.38,0,1,1,14.63,63.85a51.76,51.76,0,0,1,22-43.18Z" transform="translate(-14.63 -7.48)"/><text class="c" transform="translate(11.28 55.43)"><tspan class="d"><tspan xml:space="preserve">            </tspan><tspan class="e" x="44.93" y="0">90%</tspan></tspan><tspan class="f"><tspan x="-0.46" y="10.8">of security incidents a</tspan><tspan class="g" x="78.45" y="10.8">r</tspan><tspan x="81.22" y="10.8">e</tspan><tspan x="9.06" y="21.6">due </tspan><tspan class="h" x="24.86" y="21.6">t</tspan><tspan x="27.57" y="21.6">o </tspan><tspan class="i" x="34.18" y="21.6">appli</tspan><tspan class="j" x="53.01" y="21.6">c</tspan><tspan class="k" x="56.79" y="21.6">ation</tspan></tspan><tspan class="l"><tspan class="m" x="27.51" y="32.4" xml:space="preserve"> de</tspan><tspan class="n" x="38.38" y="32.4">f</tspan><tspan class="o" x="40.83" y="32.4">ects</tspan><tspan class="p" x="55.62" y="32.4">.</tspan></tspan><tspan class="q"><tspan x="27.18" y="46.8">Sou</tspan><tspan class="r" x="36.87" y="46.8">r</tspan><tspan class="s" x="38.9" y="46.8">c</tspan><tspan x="41.51" y="46.8">e: DHS</tspan></tspan></text></svg>