<svg xmlns="http://www.w3.org/2000/svg" viewBox="0 0 87.4 71.1"><linearGradient id="a" gradientUnits="userSpaceOnUse" x1="43.381" y1="59.232" x2="43.381" y2="12.287"><stop offset="0" stop-color="gray"/><stop offset="1" stop-color="#A6A6A6"/></linearGradient><path fill="url(#a)" d="M25.6 12.3H14v9.6h11.6v-9.6zm47.2 0H60.9v9.6h11.9v-9.6zM14 59.2h7.4v-9.6H14v9.6zm9.9 0h1.8v-9.6h-1.8v9.6zm41.5 0h7.4v-9.6h-7.4v9.6zm-4.9 0h2v-9.6h-2v9.6zM21.4 34.3v-9.6H14v9.6h7.4zm51.4 0v-9.6h-7.4v9.6h7.4zm-11.7-9.6v9.6h1.4v-9.6h-1.4zm-37 0v9.6h1.5v-9.6h-1.5zm1.8 22.1v-9.6H14v9.6h11.9zm34.7-9.6v9.6h12.2v-9.6H60.6z"/><linearGradient id="b" gradientUnits="userSpaceOnUse" x1="27.61" y1="47.694" x2="34.935" y2="47.694"><stop offset="0" stop-color="#1AB3FF"/><stop offset="1" stop-color="#6CF"/></linearGradient><path fill="url(#b)" d="M31.7 32.8l-4 4.5v21.8c0 2 1.5 3.5 3.4 3.5h4v-4.5h-3.3l-.1-25.3z"/><linearGradient id="c" gradientUnits="userSpaceOnUse" x1="27.607" y1="26.395" x2="34.932" y2="26.395"><stop offset="0" stop-color="#1AB3FF"/><stop offset="1" stop-color="#6CF"/></linearGradient><path fill="url(#c)" d="M31.7 15.1H35v-4.5h-4c-1.9 0-3.4 1.6-3.4 3.5v23.6l4 4.5.1-27.1z"/><linearGradient id="d" gradientUnits="userSpaceOnUse" x1="36.775" y1="35.906" x2="58.346" y2="35.906"><stop offset="0" stop-color="#1AB3FF"/><stop offset="1" stop-color="#6CF"/></linearGradient><path fill="url(#d)" d="M43.3 38.7c-1.4 0-2.5-1.3-2.5-2.8 0-1.5 1.1-2.8 2.5-2.8s2.5 1.3 2.5 2.8c0 1.6-1.1 2.8-2.5 2.8zm13.8-26.5L38.7 7.5c-1.1-.3-1.9 1-1.9 2.9v51.1c0 1.9.9 3.2 1.9 2.9l18.4-4.7c.7-.2 1.3-1.6 1.3-3.1V15.3c-.1-1.5-.6-2.9-1.3-3.1z"/></svg>