<svg xmlns="http://www.w3.org/2000/svg" viewBox="0 0 87.4 71.1"><linearGradient id="m" gradientUnits="userSpaceOnUse" x1="-314.416" y1="304.15" x2="-308.851" y2="304.15" gradientTransform="matrix(8.439 0 0 -8.439 2674.13 2576.837)"><stop offset="0" stop-color="gray"/><stop offset="1" stop-color="#A6A6A6"/></linearGradient><path fill="url(#m)" d="M35.9 9.9v.1c0 .2 0 .5-.1.7-.1.2-.1.5-.2.7-.2.4-.4.8-.6 1.1-.2.3-.4.5-.6.6-.2.1-.3.2-.3.2s.1-.1.1-.3c.1-.2.2-.5.3-.8.1-.3.2-.7.3-1.1.1-.2.1-.4.1-.6s.1-.4.1-.6V8.7c0-.2-.1-.4-.2-.6-.1-.2-.1-.3-.2-.5s-.1-.3-.2-.4c-.1-.1-.1-.2-.2-.3-.1-.1-.1-.2-.1-.2v-.1s.1.1.3.2c.1.1.2.1.3.2.1.1.2.2.3.4.1.1.2.3.3.5.1.1.1.2.2.3 0 .1.1.2.1.3 0 .1.1.2.1.3v.8l.2.3zm-6.7-.5c-.6 0-1.1-.5-1.1-1.1 0-.6.5-1.1 1.1-1.1s1.1.5 1.1 1.1c0 .5-.5 1.1-1.1 1.1zm33 .8s1.7-5 5.6-7.1c-4.9.8-8.5 2.8-10.7 4.4-3.7-1.7-9.6-3.8-17.3-3.8-9.3 0-15 2.8-17.8 4.7l4.1 2.8-5.2.1c2.3 1.8 8.3 5.5 18.9 5.5 7.7 0 13.7-1.9 17.3-3.8 2.2 1.6 5.7 3.5 10.7 4.4-3.9-2.2-5.6-7.2-5.6-7.2z"/><linearGradient id="n" gradientUnits="userSpaceOnUse" x1="-314.416" y1="298.09" x2="-308.851" y2="298.09" gradientTransform="matrix(8.439 0 0 -8.439 2674.13 2576.837)"><stop offset="0" stop-color="gray"/><stop offset="1" stop-color="#A6A6A6"/></linearGradient><path fill="url(#n)" d="M35.9 61v.1c0 .2 0 .5-.1.7-.1.2-.1.5-.2.7-.2.4-.4.8-.6 1.1-.2.3-.4.5-.6.6-.2.1-.3.2-.3.2s.1-.1.1-.3c.1-.2.2-.5.3-.8.1-.3.2-.7.3-1.1.1-.2.1-.4.1-.6 0-.2.1-.4.1-.6V60.1c0-.1 0-.2-.1-.3 0-.2-.1-.4-.2-.6-.1-.2-.1-.3-.2-.5s-.1-.3-.2-.4c-.1-.1-.1-.2-.2-.3-.1-.2-.1-.3-.1-.3v-.1s.1.1.3.2c.1.1.2.1.3.2.1.1.2.2.3.4.1.1.2.3.3.5.1.1.1.2.2.3 0 .1.1.2.1.3 0 .1.1.2.1.3v.8l.3.4zm-6.7-.5c-.6 0-1.1-.5-1.1-1.1 0-.6.5-1.1 1.1-1.1s1.1.5 1.1 1.1c0 .6-.5 1.1-1.1 1.1zm33 .8s1.7-5 5.6-7.1c-5 .9-8.5 2.8-10.7 4.4-3.7-1.7-9.6-3.8-17.3-3.8-9.3 0-15 2.8-17.8 4.7l4.1 2.8-5.2.1c2.3 1.8 8.3 5.5 18.9 5.5 7.7 0 13.7-1.9 17.3-3.8 2.2 1.6 5.7 3.5 10.7 4.4-3.9-2.2-5.6-7.2-5.6-7.2z"/><linearGradient id="o" gradientUnits="userSpaceOnUse" x1="-312.636" y1="302.134" x2="-307.067" y2="302.134" gradientTransform="matrix(8.439 0 0 -8.439 2674.13 2576.837)"><stop offset="0" stop-color="gray"/><stop offset="1" stop-color="#A6A6A6"/></linearGradient><path fill="url(#o)" d="M50.9 26.9v.1c0 .2 0 .5-.1.7-.1.2-.1.5-.2.7-.2.4-.4.8-.6 1.1-.2.3-.4.5-.6.6-.2.1-.3.2-.3.2s.1-.1.1-.3c.1-.2.2-.5.3-.8.1-.3.2-.7.3-1.1.1-.2.1-.4.1-.6s.1-.4.1-.6v-1c0-.1 0-.2-.1-.3 0-.2-.1-.4-.2-.6-.1-.2-.1-.3-.2-.5s-.1-.3-.2-.4c-.1-.1-.1-.2-.2-.3 0-.1-.1-.2-.1-.2v-.1s.1 0 .3.2c.1.1.2.1.3.2.1.1.2.2.3.4.1.1.2.3.3.5.1.1.1.2.2.3 0 .1.1.2.1.3 0 .1.1.2.1.3v.8l.3.4zm-6.7-.5c-.6 0-1.1-.5-1.1-1.1s.5-1.1 1.1-1.1c.6 0 1.1.5 1.1 1.1.1.6-.4 1.1-1.1 1.1zm33.1.8s1.7-5 5.6-7.1c-5 .9-8.5 2.8-10.7 4.4-3.7-1.7-9.6-3.8-17.3-3.8-9.3 0-15 2.8-17.8 4.7l4.1 2.8-5.3.1c2.3 1.8 8.3 5.5 18.9 5.5 7.7 0 13.7-1.9 17.3-3.8 2.2 1.6 5.7 3.5 10.7 4.4-3.8-2.2-5.5-7.2-5.5-7.2z"/><path fill="#D20200" d="M37.7 44v-1c0-.1.1-.2.1-.3 0-.1.1-.2.1-.3s.1-.2.2-.3c.1-.2.2-.3.3-.5.1-.1.2-.3.3-.4.1-.1.2-.2.3-.2.2-.1.3-.2.3-.2v.1s-.1.1-.1.2c-.1.1-.1.2-.2.3.1.1 0 .2 0 .4s0 .3-.1.5-.1.4-.2.6c0 .1 0 .2-.1.3v.9c0 .2 0 .4.1.6 0 .2.1.4.1.6.1.4.2.8.3 1.1s.2.6.3.8c.1.2.1.3.1.3s-.1-.1-.3-.2c-.2-.1-.4-.4-.6-.6-.2-.3-.5-.7-.6-1.1-.1-.2-.2-.5-.2-.7-.1-.2-.1-.5-.1-.7V44zm5.6-1.7c0-.6.5-1.1 1.1-1.1.6 0 1.1.5 1.1 1.1 0 .6-.5 1.1-1.1 1.1-.5.1-1.1-.4-1.1-1.1zM5.8 51.4c5-.9 8.5-2.8 10.7-4.4 3.7 1.7 9.6 3.8 17.3 3.8 10.7 0 16.7-3.7 18.9-5.5l-5.2-.1 4.1-2.8c-2.9-1.9-8.6-4.7-17.8-4.7-7.7 0-13.7 1.9-17.3 3.8-2.2-1.6-5.7-3.5-10.7-4.4 3.9 2.1 5.6 7.1 5.6 7.1s-1.7 5.1-5.6 7.2z"/></svg>