<svg xmlns="http://www.w3.org/2000/svg" viewBox="0 0 87.4 71.1"><linearGradient id="e" gradientUnits="userSpaceOnUse" x1="4.071" y1="21.034" x2="54.882" y2="21.034"><stop offset="0" stop-color="#1AB3FF"/><stop offset="1" stop-color="#6CF"/></linearGradient><path fill="url(#e)" d="M9.6 15.2v25H5.9c-1 0-1.9-.8-1.9-1.9V6.1l2.4-3.2c.4-.5 1.3-1 2-1h12.3c.7 0 1.6.4 2 1l2.4 3.2h28c1 0 1.8.8 1.8 1.8v7.2H30.6L28.3 12c-.4-.5-1.3-1-2-1H14c-.7 0-1.6.4-2 1l-2.4 3.2z"/><linearGradient id="f" gradientUnits="userSpaceOnUse" x1="14.714" y1="39.071" x2="65.714" y2="39.071"><stop offset="0" stop-color="#1AB3FF"/><stop offset="1" stop-color="#6CF"/></linearGradient><path fill="url(#f)" d="M50.7 48.6l5-.1v-4.6c.4-4.8 3.9-8.6 9.1-9.3.4-.1.9 0 .9 0v-8.5c0-1-.5-1.5-1.6-1.5h-28L33.8 21c-.4-.5-1.3-1.4-2-1.4H19.5c-.7 0-1.8.7-2.2 1.2l-2.6 3.4v32.2c0 1 1.3 2.2 2.3 2.2h33.7v-10z"/><linearGradient id="g" gradientUnits="userSpaceOnUse" x1="61.714" y1="44.641" x2="65.714" y2="44.641"><stop offset="0" stop-color="#1AB3FF"/><stop offset="1" stop-color="#6CF"/></linearGradient><path fill="url(#g)" d="M61.7 45.2v3.4h4v-7.8c0-.1-.2-.1-.5-.1-2.1.2-3.2 1.8-3.5 4.5z"/><linearGradient id="h" gradientUnits="userSpaceOnUse" x1="52.066" y1="52.381" x2="80.092" y2="52.381"><stop offset="0" stop-color="gray"/><stop offset="1" stop-color="#A6A6A6"/></linearGradient><path fill="url(#h)" d="M52.1 64.4v4.8h28v-4.8h-28zm14-25.2c3.3 0 5.8 2.6 5.8 6V50H60.2v-4.8c0-3.3 2.6-6 5.9-6zm0-3.6c-5.1 0-9.3 4.3-9.3 9.6V50h-4.7v13.2h28V50h-4.7v-4.8c0-5.3-4.2-9.6-9.3-9.6z"/></svg>