<svg xmlns="http://www.w3.org/2000/svg" xmlns:xlink="http://www.w3.org/1999/xlink" viewBox="0 0 218.6 181.94"><defs><style>.a{fill:url(#a);}.b{fill:url(#b);}.c{fill:url(#c);}.d{fill:#fff;}</style><linearGradient id="a" x1="20.84" y1="130.06" x2="78.29" y2="130.06" gradientUnits="userSpaceOnUse"><stop offset="0" stop-color="#1ab3ff"/><stop offset="1" stop-color="#6cf"/></linearGradient><linearGradient id="b" x1="181.98" y1="130.06" x2="239.44" y2="130.06" xlink:href="#a"/><linearGradient id="c" x1="69.34" y1="124.06" x2="189.66" y2="124.06" gradientUnits="userSpaceOnUse"><stop offset="0" stop-color="gray"/><stop offset="1" stop-color="#a6a6a6"/></linearGradient></defs><title>ironsdk</title><path class="a" d="M20.84,121.4c15.5-.68,17.1-8.89,17.33-15.73,0-5.47-.68-11.63-1.14-17.78a168,168,0,0,1-1.37-18c0-21.43,13.45-30.78,34.66-30.78h8V58.47h-4.1c-10.26.23-13.91,6.16-13.91,16.19a91.21,91.21,0,0,0,1.14,13,149.26,149.26,0,0,1,1.14,15.73c.23,17.1-6.84,23.71-19.61,26.45v.46c12.77,2.51,19.84,9.12,19.61,26.45a158.86,158.86,0,0,1-1.14,16,88.21,88.21,0,0,0-1.14,12.77c0,10,3.42,16.19,13.91,16.42h4.1V221H70.09c-20.29,0-34.43-8.21-34.43-31A168,168,0,0,1,37,172c.46-6.16,1.14-12.08,1.14-17.78,0-6.38-1.6-14.82-17.33-15.5Z" transform="translate(-20.84 -39.09)"/><path class="b" d="M239.44,138.73c-15.5.68-17.1,9.12-17.33,15.5A164,164,0,0,0,223.48,172c.46,6.16,1.14,12.31,1.14,18,0,22.8-14.14,31-34.43,31H182V201.88h4.1c10.49-.23,13.91-6.38,13.91-16.42a88.27,88.27,0,0,0-1.14-12.77,158.85,158.85,0,0,1-1.14-16c-.23-17.33,6.84-23.94,19.61-26.45v-.46c-12.77-2.74-19.84-9.35-19.61-26.45a149.24,149.24,0,0,1,1.14-15.73,91.28,91.28,0,0,0,1.14-13c0-10-3.65-16-13.91-16.19H182V39.09h8c21.2,0,34.66,9.35,34.66,30.78,0,5.7-.68,11.86-1.14,18a168.51,168.51,0,0,0-1.37,17.78c0,6.84,1.6,15,17.33,15.73Z" transform="translate(-20.84 -39.09)"/><path class="c" d="M159,110.74a1.32,1.32,0,0,1-1.23,1.23H101.26a1.32,1.32,0,0,1-1.23-1.23V96.93c0-15.65,11.66-29.16,27.32-30.39A29.12,29.12,0,0,1,158.66,95.7v15ZM181.37,112h-6.45a1.32,1.32,0,0,1-1.23-1.23V97.23c0-23.94-18.11-44.2-42-45.43A44.15,44.15,0,0,0,85.3,96v14.73A1.32,1.32,0,0,1,84.07,112H77.63a8.25,8.25,0,0,0-8.29,8.29v5.22a2,2,0,0,0,1.84,1.84H89.91a4.6,4.6,0,1,1,0,9.21H71.18a2,2,0,0,0-1.84,1.84v9.21a2,2,0,0,0,1.84,1.84H89.91a4.6,4.6,0,1,1,0,9.21H71.18a2,2,0,0,0-1.84,1.84v9.21a2,2,0,0,0,1.84,1.84H89.91a4.6,4.6,0,1,1,0,9.21H71.18a2,2,0,0,0-1.84,1.84v5.52a8.25,8.25,0,0,0,8.29,8.29H181.37a8.25,8.25,0,0,0,8.29-8.29V120.56A8.33,8.33,0,0,0,181.37,112Z" transform="translate(-20.84 -39.09)"/><circle class="d" cx="118.72" cy="115.79" r="9.06"/><path class="d" d="M161,129.77l-.28-.24L157,134.34l.24.22a27.1,27.1,0,0,1,3,3.09L155.29,141a21.12,21.12,0,0,0-15.88-7.28A21.42,21.42,0,0,0,123.33,141l-4.94-3.08a26.92,26.92,0,0,1,33.93-6.81l.26.14,3.68-4.84-.34-.2a33,33,0,0,0-43.82,47.09l.21.31,4.71-3.82-.17-.26a26.89,26.89,0,0,1-1.64-26.64l4.85,3a21,21,0,0,0-2,9.05,21.59,21.59,0,0,0,21.38,21.59A21.28,21.28,0,0,0,160.47,159H155a15.88,15.88,0,0,1-15.6,12.09,16.19,16.19,0,0,1-16-16.19c0-8.84,7.19-15.46,16-15.46A16,16,0,0,1,155.14,153h5.42a18.47,18.47,0,0,0-2-6.79l4.9-3.49a26.61,26.61,0,0,1,2.91,12.09,26.94,26.94,0,0,1-45.74,19.28l-.22-.22-4.72,3.82.27.27a33,33,0,1,0,45-48.19Z" transform="translate(-20.84 -39.09)"/></svg>