<svg xmlns="http://www.w3.org/2000/svg" xmlns:xlink="http://www.w3.org/1999/xlink" viewBox="0 0 236.67 214"><defs><style>.a{fill:url(#a);}.b{fill:url(#b);}.c{fill:url(#c);}.d{fill:#fff;}</style><linearGradient id="a" x1="34" y1="38.3" x2="203" y2="38.3" gradientUnits="userSpaceOnUse"><stop offset="0" stop-color="#1ab3ff"/><stop offset="1" stop-color="#6cf"/></linearGradient><linearGradient id="b" x1="14" y1="149.5" x2="231" y2="149.5" xlink:href="#a"/><linearGradient id="c" x1="160.34" y1="118.09" x2="250.67" y2="118.09" gradientUnits="userSpaceOnUse"><stop offset="0" stop-color="gray"/><stop offset="1" stop-color="#a6a6a6"/></linearGradient></defs><title>ironsftp</title><path class="a" d="M203,48h-.38c0-6-5.16-12-11.5-12H116.37A16.74,16.74,0,0,0,99.91,21H50.11C41,21,34,28.69,34,37.8V55.58H203Z" transform="translate(-14 -21)"/><path class="b" d="M167,91.73c.63-10,6.34-16.74,12.49-22.61,2-1.91,6.53-4.06,8.69-5.13H28.64a4.06,4.06,0,0,0-3.12,1.23,4,4,0,0,0-.88,3.24l12.08,98.44A7.29,7.29,0,0,0,43.5,173h66.76a.61.61,0,0,0-.25.43V211h-7.81a12,12,0,0,0-11.84,10H14v4H90.37c1.21,5,6,10,11.84,10h46.62c5.8,0,10.63-5,11.84-10H231v-4H160.67a12,12,0,0,0-11.84-10H139V173.43a.82.82,0,0,1,.15-.43H158.8a9.59,9.59,0,0,1-2.8-6.37V112.57c.83-4.57,2.67-8.57,11-8.57m-32.67,69.13c0,.1,0,.2,0,.3C134.33,173.32,134.33,173.23,134.33,173.13ZM115,172.81c0,.11,0,.21,0,.32,0-.12,0-.22,0-.32Z" transform="translate(-14 -21)"/><path class="c" d="M227.62,108.09a1,1,0,0,1-.92.92H184.3a1,1,0,0,1-.92-.92V97.72c0-11.75,8.76-21.89,20.51-22.81a21.86,21.86,0,0,1,23.5,21.89v11.29Zm16.82.92h-4.84a1,1,0,0,1-.92-.92V97.95c0-18-13.6-33.18-31.57-34.1A33.14,33.14,0,0,0,172.32,97v11.06a1,1,0,0,1-.92.92h-4.84a6.2,6.2,0,0,0-6.22,6.22v3.92a1.49,1.49,0,0,0,1.38,1.38h14.06a3.46,3.46,0,1,1,0,6.91H161.72a1.49,1.49,0,0,0-1.38,1.38v6.91a1.49,1.49,0,0,0,1.38,1.38h14.06a3.46,3.46,0,1,1,0,6.91H161.72a1.49,1.49,0,0,0-1.38,1.38v6.91a1.49,1.49,0,0,0,1.38,1.38h14.06a3.46,3.46,0,1,1,0,6.91H161.72a1.49,1.49,0,0,0-1.38,1.38v4.15a6.2,6.2,0,0,0,6.22,6.22h77.88a6.2,6.2,0,0,0,6.22-6.22V115.46A6.25,6.25,0,0,0,244.44,109Z" transform="translate(-14 -21)"/><circle class="d" cx="199.06" cy="120.23" r="6.8"/><path class="d" d="M229.12,122.37l-.21-.18-2.75,3.61.18.16a20.35,20.35,0,0,1,2.24,2.32l-3.71,2.55a15.85,15.85,0,0,0-11.92-5.47,16.08,16.08,0,0,0-12.07,5.41l-3.71-2.31a20.21,20.21,0,0,1,25.47-5.11l.2.11,2.77-3.63-.26-.15A24.77,24.77,0,0,0,192.44,155l.16.24,3.54-2.87-.13-.2a20.19,20.19,0,0,1-1.23-20l3.64,2.27a15.77,15.77,0,0,0-1.53,6.8c0,8.85,7.2,15.55,16,15.55A16.11,16.11,0,0,0,228.75,143h-4.1c-1.24,7-6,9.73-11.71,9.73a11.87,11.87,0,0,1-12-11.82c0-6.64,5.4-11.35,12-11.35,5.86,0,10.74,4.44,11.81,10.44h4.07a10.82,10.82,0,0,0-1.5-5.19l3.68-2.67a19.88,19.88,0,0,1,2.19,9.05,20.22,20.22,0,0,1-34.34,14.46l-.17-.17-3.54,2.87.2.2a24.77,24.77,0,1,0,33.78-36.18Z" transform="translate(-14 -21)"/></svg>