<svg xmlns="http://www.w3.org/2000/svg" xmlns:xlink="http://www.w3.org/1999/xlink" viewBox="0 0 684.85 972.22"><defs><style>.a{fill:#1a1a1a;}.b{fill:url(#a);}.c{fill:url(#b);}</style><linearGradient id="a" x1="27.59" y1="487.48" x2="658.14" y2="487.48" gradientUnits="userSpaceOnUse"><stop offset="0" stop-color="gray"/><stop offset="1" stop-color="#a6a6a6"/></linearGradient><linearGradient id="b" x1="268.11" y1="454.22" x2="510.65" y2="454.22" gradientUnits="userSpaceOnUse"><stop offset="0" stop-color="#1ab3ff"/><stop offset="1" stop-color="#6cf"/></linearGradient></defs><title>light-switch</title><path class="a" d="M838.13,882.81a89.67,89.67,0,0,1-90.07,90.07H300.58a89.67,89.67,0,0,1-90.07-90.07V147.9a89.67,89.67,0,0,1,90.07-90.07H748.06a89.67,89.67,0,0,1,90.07,90.07ZM746.65,29.28H300.58A118.4,118.4,0,0,0,181.89,148V882.81A118.4,118.4,0,0,0,300.58,1001.5H748.06A118.4,118.4,0,0,0,866.75,882.81V147.9C866.75,82.16,812.39,29.28,746.65,29.28Z" transform="translate(-181.89 -29.28)"/><rect class="b" x="27.59" y="27.82" width="630.54" height="919.32" rx="90.49" ry="90.49"/><polygon class="c" points="268.11 288.23 268.11 651.72 427.11 651.72 427.11 472.44 510.65 340.31 486.01 256.72 320.95 256.72 268.11 288.23"/><path class="a" d="M540.77,352.37,527.9,302.31H658l12.87,50.06ZM603.7,481H482.2l60-95.77h120.1ZM466.45,669.76V513.95H593.72V669.76Zm0-284.49,34.31-54.35,10,40-44.3,71.51ZM686.6,280.86c-2.88-8.58-10-12.87-20-12.87,0,0-161.58-1.41-164.39,0h-1.41c-7.17,2.88-11.46,10-10,17.16l-2.88,4.29H450.7c-8.58,0-17.16,7.17-17.16,17.16V686.92c0,8.58,7.17,17.16,17.16,17.16H610.8a14.76,14.76,0,0,0,15.75-15.75V508.19l77.2-124.38c1.41-1.41,1.41-4.29,2.88-7.17s2.88-7.17,1.41-11.46Z" transform="translate(-181.89 -29.28)"/></svg>