<svg xmlns="http://www.w3.org/2000/svg" xmlns:xlink="http://www.w3.org/1999/xlink" viewBox="0 0 871.03 948.33"><defs><style>.a{fill:url(#a);}.b{fill:url(#b);}</style><linearGradient id="a" x1="79.21" y1="581.68" x2="950.23" y2="581.68" gradientUnits="userSpaceOnUse"><stop offset="0" stop-color="gray"/><stop offset="1" stop-color="#a6a6a6"/></linearGradient><linearGradient id="b" x1="447.72" y1="310.72" x2="581.72" y2="310.72" gradientUnits="userSpaceOnUse"><stop offset="0" stop-color="#1ab3ff"/><stop offset="1" stop-color="#6cf"/></linearGradient></defs><title>power-button</title><path class="a" d="M79.21,547.83c-.15-122.11,50.48-214.41,99.42-273,49.2-59.13,97-87.58,101.26-90.24a66.57,66.57,0,0,1,91.67,24.25c18.61,32.15,8,73.45-23.61,92.47,0,0-.05,0-.15.1s-.2.14-.39.24c-.64.39-1.83,1.19-3.46,2.33-3.31,2.21-8.5,5.92-14.92,11a329.76,329.76,0,0,0-47.71,46.87c-34.77,42.37-68,102.38-68.12,186a305.36,305.36,0,0,0,88.32,215.5c54.83,55.27,129.8,89.3,213.17,89.3s158.36-34,213.17-89.3a305.1,305.1,0,0,0,88.37-215.5c-.15-81.05-31.22-139.83-64.85-182-32-40-66.23-62.34-69.6-64.41a.18.18,0,0,0-.1,0,.16.16,0,0,0-.1-.05l-.05-.05c-31.65-19-42.22-60.31-23.61-92.47a66.63,66.63,0,0,1,91.67-24.25c4.3,2.67,52.06,31.12,101.26,90.24,48.95,58.63,99.52,151,99.37,273,0,243.1-195,440.18-435.49,440.28C274.25,988,79.3,790.93,79.21,547.83Z" transform="translate(-79.21 -39.78)"/><path class="b" d="M447.72,513.94V107.49c0-37.39,30-67.71,67-67.71s67,30.32,67,67.71V513.94c0,37.39-30,67.71-67,67.71S447.72,551.33,447.72,513.94Z" transform="translate(-79.21 -39.78)"/></svg>