<svg xmlns="http://www.w3.org/2000/svg" xmlns:xlink="http://www.w3.org/1999/xlink" viewBox="0 0 953.31 873.47"><defs><style>.a{fill:url(#a);}.b{fill:#010101;}.c{fill:url(#b);}.d{fill:url(#c);}.e{fill:url(#d);}.f{fill:url(#e);}.g{fill:url(#f);}.h{fill:url(#g);}.i{fill:url(#h);}.j{fill:url(#i);}.k{fill:url(#j);}.l{fill:#fff;}.m{fill:url(#k);}</style><linearGradient id="a" x1="428.64" y1="810.63" x2="802.22" y2="810.63" gradientUnits="userSpaceOnUse"><stop offset="0" stop-color="gray"/><stop offset="1" stop-color="#a6a6a6"/></linearGradient><linearGradient id="b" x1="712.12" y1="699.62" x2="989.1" y2="699.62" xlink:href="#a"/><linearGradient id="c" x1="137.61" y1="265.45" x2="149.25" y2="265.45" xlink:href="#a"/><linearGradient id="d" x1="748.17" y1="101.67" x2="759.82" y2="101.67" xlink:href="#a"/><linearGradient id="e" x1="150.3" y1="269.73" x2="253.09" y2="269.73" xlink:href="#a"/><linearGradient id="f" x1="35.79" y1="292" x2="146.05" y2="292" xlink:href="#a"/><linearGradient id="g" x1="139.7" y1="284.55" x2="156.65" y2="284.55" xlink:href="#a"/><linearGradient id="h" x1="760.81" y1="104.38" x2="864.72" y2="104.38" xlink:href="#a"/><linearGradient id="i" x1="646.42" y1="127.7" x2="755.56" y2="127.7" xlink:href="#a"/><linearGradient id="j" x1="751.31" y1="121.35" x2="767.21" y2="121.35" xlink:href="#a"/><linearGradient id="k" x1="131.84" y1="416.47" x2="814.45" y2="416.47" gradientUnits="userSpaceOnUse"><stop offset="0" stop-color="#1ab3ff"/><stop offset="1" stop-color="#6cf"/></linearGradient></defs><title>drone-dog</title><path class="a" d="M698.31,700.12l-186.55,7.39h-1l-39.19-38.15a5.13,5.13,0,0,0-7.41,0l-33.89,35a5.13,5.13,0,0,0,0,7.41l56.2,54c2.11,2.09,4.25,6.35,4.25,8.51L492.76,946a5,5,0,0,0,5.3,5.3h65.65A5,5,0,0,0,569,946V880.33l35,68.9a9,9,0,0,0,7.39,4.24h65.69c3.21,0,4.25-2.09,3.21-5.3l-38.15-85.85c-1-3.19,0-5.3,3.19-5.3h77.35a5,5,0,0,1,5.3,5.3v84.8a5,5,0,0,0,5.3,5.3h63.6a5,5,0,0,0,5.3-5.3l-2.09-144.21Z" transform="translate(-35.79 -80.01)"/><path class="b" d="M847.83,657.72h0Z" transform="translate(-35.79 -80.01)"/><path class="c" d="M979.22,657.72c-2.09-7.41-8.49-7.41-11.65-6.36-15.9,3.21-45.6,8.51-45.6,8.51-1.06,0-2.11,0-2.11-1l-28.59-43.46c-1-2.09-5.3-4.24-7.41-4.24l-56.2-6.36h-9.55s-72.11,8.51-71,10.6l22.25,100.7c1,3.21,3.19,5.3,6.35,4.25l56.21-2.09c3.19,0,5.3-2.11,6.35-5.3L847.83,662a4.57,4.57,0,0,1,4.24-4.25h.06a5.52,5.52,0,0,1,2.11,4.25l-13.87,56.1c-1,3.21-3.19,5.3-6.35,5.3l-63.6,3.21a7.05,7.05,0,0,1-6.35-4.25l-11.65-54-40.31,27.55,97.49,98.6,32.86-32.85c2.09-2.09,5.3-3.19,8.49-4.25,0,0,103.91-3.19,127.2-26.5C1001.53,705.42,980.33,665.11,979.22,657.72Z" transform="translate(-35.79 -80.01)"/><path class="d" d="M148.21,263.35a5.93,5.93,0,0,0-5.3-3.19l-2.11,1a5.89,5.89,0,0,0-3.19,5.3l1,4.25,10.6-3.21Z" transform="translate(-35.79 -80.01)"/><path class="e" d="M758.77,100.09a5.91,5.91,0,0,0-5.3-3.19l-2.11,1a5.91,5.91,0,0,0-3.19,5.3l1,3.21,10.6-3.21Z" transform="translate(-35.79 -80.01)"/><path class="f" d="M192.7,282.46c12.69-5.3,24.41-9.55,33.89-14.85,18-9.55,25.45-16.95,26.5-22.25L150.3,272.9l5.3,21.2C169.41,289.85,182.1,286.71,192.7,282.46Z" transform="translate(-35.79 -80.01)"/><path class="g" d="M35.79,303.66c1.06,2.09,4.25,3.19,6.36,3.19A109.24,109.24,0,0,0,63.35,309c21.2,0,51.94-4.25,82.7-12.71l-5.3-21.2Z" transform="translate(-35.79 -80.01)"/><path class="h" d="M146,296.2c1,0,3.21-1,4.25-1,2.09-1,4.25-1,6.35-2.09L150.3,272.9l-10.6,3.21Z" transform="translate(-35.79 -80.01)"/><path class="i" d="M804.31,117.11c12.71-5.3,24.41-9.55,33.91-14.85,18-9.55,25.45-16.95,26.5-22.25L760.81,107.55l5.3,21.2A146.35,146.35,0,0,0,804.31,117.11Z" transform="translate(-35.79 -80.01)"/><path class="j" d="M646.42,139.35c1,2.09,4.24,3.19,6.35,3.19a109.24,109.24,0,0,0,21.2,2.11c21.2,0,50.9-4.25,81.59-12.71l-5.3-21.2Z" transform="translate(-35.79 -80.01)"/><path class="k" d="M756.61,133c2.11,0,3.21-1.06,5.3-1.06s3.21-1,5.3-1l-5.3-21.2-10.6,3.21Z" transform="translate(-35.79 -80.01)"/><path class="l" d="M423.82,438.25h0a3.71,3.71,0,0,1-2.11,1c2.11,3.21,3.21,7.41,4.25,13.81v1h1a11.59,11.59,0,0,1,2.11,4.25,11.5,11.5,0,0,0-1.06-5.3C427,445.72,425.91,441.46,423.82,438.25Z" transform="translate(-35.79 -80.01)"/><path class="l" d="M428,454.15h0s1.06,2.11,2.11,4.25h0C428,455.2,428,454.15,428,454.15Z" transform="translate(-35.79 -80.01)"/><path class="l" d="M428,454.15h0a11.31,11.31,0,0,1,2.11,4.25h0C428,455.2,428,454.15,428,454.15Z" transform="translate(-35.79 -80.01)"/><path class="l" d="M405.75,430.86h0c1,1,2.11,1,2.11,2.09h0Z" transform="translate(-35.79 -80.01)"/><path class="l" d="M423.82,438.25l-1.06,1c-.06,0,1.06-1,1.06-1Z" transform="translate(-35.79 -80.01)"/><path class="l" d="M423.82,438.25h0a3.71,3.71,0,0,1-2.11,1h0A4,4,0,0,0,423.82,438.25Z" transform="translate(-35.79 -80.01)"/><path class="l" d="M405.75,430.86h0c1,1,2.11,1,2.11,2.09h0Z" transform="translate(-35.79 -80.01)"/><path class="l" d="M424.86,453.11h0c1,0,1,1,2.09,1h0C427,453.11,425.91,453.11,424.86,453.11Z" transform="translate(-35.79 -80.01)"/><path class="l" d="M407.92,433h0c1,1,2.09,1,2.09,2.11h0A2.25,2.25,0,0,0,407.92,433Z" transform="translate(-35.79 -80.01)"/><path class="l" d="M407.92,433h0c1,1,2.09,1,2.09,2.11h0A2.25,2.25,0,0,0,407.92,433Z" transform="translate(-35.79 -80.01)"/><path class="l" d="M424.86,453.11h0c1,0,1,1,2.09,1h0C425.91,453.11,425.91,453.11,424.86,453.11Z" transform="translate(-35.79 -80.01)"/><path class="m" d="M809.61,180.71C806.42,168,789.47,166.9,776.76,168l-8.44-32.9c-2.11,0-3.21,1-5.3,1s-3.21,1-5.3,1l8.49,31.8a22.71,22.71,0,0,1-6.35,1.06L577.56,218.8l-26.5-33.91c-3.19-3.19-8.49-5.3-12.69-4.24l-50.91,13.79c-11.65-7.39-25.44-10.6-38.15-6.35a50.29,50.29,0,0,0-29.7,25.45L372.91,225.2a14.26,14.26,0,0,0-9.55,9.55l-9.55,44.49L172.55,328a32.72,32.72,0,0,1-6.35,2.11l-8.51-30.76c-2.09,1-4.24,1-6.35,2.11-1,0-3.19,1-4.25,1l8.51,32.85c-12.69,6.35-26.5,15.9-23.29,27.55,5.3,19.11,25.44,50.91,41.34,46.66s17-13.81,17-13.81l5.3-54s85.85-23.29,189.75-50.9l-2.15-.95v1l29.71,45.61,2.09,4.2c-1,2.09-2.09,4.25-3.21,6.35-4.24,9.55-8.49,19.11-9.54,28.61a64.54,64.54,0,0,0-1.06,24.39h0c-1,0-1,0-2.09-1h-2.09c-2.11,0-3.21-1-5.3-1h-4.25c-6.35,0-11.65,2.09-13.81,4.24-1,2.11-2.09,3.21-1,6.36a49.4,49.4,0,0,0,12.69,21.2,90.86,90.86,0,0,0,19.11,14.84c3.21,2.11,6.35,3.21,9.55,5.3a121.53,121.53,0,0,1-6.35-15.9v-1c-1.06-1-2.11-2.09-3.21-2.09-4.25-4.25-8.51-8.51-10.6-11.65-2.09-4.25-3.21-6.36-2.09-7.41a3.65,3.65,0,0,1,2.09-1c1,0,3.21,0,4.25,1,1,0,2.09,1,3.19,2.11,1.06,0,1.06,1,2.11,1s1,1,2.09,1a178.3,178.3,0,0,0,6.35,21.2h0c3.21,7.39,5.3,11.65,7.41,15.9h0a24.44,24.44,0,0,0,4.25,6.35l2.09,2.11,2.11,2.09v-2.09a13.44,13.44,0,0,0-1.06-6.36h0c-1-6.35-3.19-10.6-4.24-13.79h0c-1.06-2.11-1.06-3.21-2.11-5.3-2.09-4.25-4.25-8.51-7.39-15.9h0c1,1,2.09,2.09,3.19,2.09,1,1.06,2.11,2.11,3.21,3.21,2.09,2.09,3.19,4.25,5.3,6.35,2.09,4.25,3.19,6.35,2.09,7.41,2.11,3.19,3.21,7.39,4.25,13.79,0,2.11,1,4.25,1,5.3,3.21,7.41,10.6,24.41,14.85,40.31,2.09,7.39,7.39,27.55,16.95,49.79,4.25,10.6,8.51,21.2,13.81,29.71,5.3,10.6,10.6,19.09,16.95,25.44,5.3,6.36,12.69,11.66,23.29,17,8.51,4.24,18,7.39,29.71,10.6,20.15,5.3,40.31,6.35,48.75,7.39h2.11A253.57,253.57,0,0,1,631.51,646c9.55,2.09,25.45,7.39,29.7,12.69,8.51,8.51,38.16,39.19,39.21,39.19l13.79-5.3c-1-1-23.29-25.44-39.19-40.3-4.25-4.25-9.55-7.41-16.95-10.6-6.35-3.21-13.81-5.3-22.25-7.41-7.41-2.09-14.85-4.24-23.31-5.3-7.39-1-13.79-2.09-19.09-2.09-10.6,0-29.71-4.25-48.76-9.55-9.54-3.19-18-6.35-25.44-9.55a51.32,51.32,0,0,1-15.9-10.6c-2.11-3.19-5.3-7.39-8.51-11.65-3.21-6.35-7.39-12.69-10.6-21.2-9.55-20.15-18-44.49-26.5-74.2-4.25-15.9-15.9-42.4-15.9-42.4a48.72,48.72,0,0,0-1-8.49c-1-3.21-3.21-6.36-5.3-10.6-3.21-4.25-6.35-9.55-10.6-14.85a96.91,96.91,0,0,0-10.6-9.55h0c-1,0-1-1-2.11-1s-1-1-2.09-1S409,401,408,401h0a77.5,77.5,0,0,1,1.06-26.5A111.27,111.27,0,0,1,419.62,347c0-1,1-1,1-2.09l1,1h3.15l132.5-38.15c16.95,9.55,35,23.29,41.36,40.3C610.37,381,604,382,612.52,403.2s8.51,0,8.51,0,2.09-15.9-12.71-57.26c-7.39-21.2-27.55-37.1-45.6-47.7V241h-1.06l-3.19,1c101.75-27.55,184.46-49.79,184.46-49.79S773.67,224,780,235.69c7.39,10.6,21.2,21.2,29.7,2.11C817.07,218.86,814.91,201.91,809.61,180.71Z" transform="translate(-35.79 -80.01)"/></svg>