<svg xmlns="http://www.w3.org/2000/svg" xmlns:xlink="http://www.w3.org/1999/xlink" viewBox="0 0 951.01 951.67"><defs><style>.a{fill:url(#a);}.b{fill:url(#b);}.c{fill:url(#c);}.d{fill:url(#d);}</style><linearGradient id="a" x1="36.44" y1="510.94" x2="987.45" y2="510.94" gradientUnits="userSpaceOnUse"><stop offset="0" stop-color="#1ab3ff"/><stop offset="1" stop-color="#6cf"/></linearGradient><linearGradient id="b" x1="342.67" y1="853.33" x2="610.33" y2="853.33" gradientUnits="userSpaceOnUse"><stop offset="0" stop-color="gray"/><stop offset="1" stop-color="#a6a6a6"/></linearGradient><linearGradient id="c" x1="36.67" y1="546.33" x2="304.33" y2="546.33" xlink:href="#b"/><linearGradient id="d" x1="189.11" y1="750.78" x2="355.44" y2="750.78" xlink:href="#b"/></defs><title>rocket</title><path class="a" d="M833.41,224.61l-35.19-35.19a9.67,9.67,0,0,1,13.67-13.67l35.19,35.19a9.67,9.67,0,0,1-13.67,13.67Zm-231.5,92.17q-42.56,42.56-79.6,81.51c-40.67,8.46-89.7,20.1-134.26,34.53a1203.9,1203.9,0,0,0-124.89,48.81c30.19-41.88,40.46-68.94,40.4-68.89.11-.11-62.09,22.67-145.8,106.44C74.26,602.67,36.44,662.73,36.44,662.73l17.13,17.13s7.24-4.62,20-13.9l-.06.06s69.38-36.17,134.92-24.1a328.48,328.48,0,0,1,79.93,25.25c-10.43,13.56-15.64,20.76-15.64,20.76l11.85,11.8c-65,69-94.91,116.32-94.91,116.32l17.13,17.13s47.32-29.86,116.32-94.91l11.8,11.8s7.2-5.17,20.76-15.6a327,327,0,0,1,25.25,79.93c12,65.49-24.1,134.92-24.1,134.92-9.28,12.75-13.88,20-13.88,20L360,986.45s60.06-37.82,143.55-121.32C587.31,781.41,610.09,719.21,610,719.27s-27,10.22-68.89,40.4A1206.42,1206.42,0,0,0,590,634.78c14.43-44.56,26.07-93.59,34.53-134.26q38.87-37.06,81.52-79.6C927.44,199.58,987.67,35.22,987.45,35.44,987.67,35.22,820.94,97.75,601.91,316.79Z" transform="translate(-36.44 -35.44)"/><path class="b" d="M342.67,969.44s60-88.89,150-171.11c71.11-61.11,117.67-78.78,117.67-78.78S589,768,536.78,831.33c-74.44,82.22-176.22,155.78-176.22,155.78Z" transform="translate(-36.44 -35.44)"/><path class="c" d="M36.67,662.44s60-88.89,150-171.11c71.11-61.11,117.67-78.78,117.67-78.78S283,461,230.78,524.33C156.33,606.56,54.56,680.11,54.56,680.11Z" transform="translate(-36.44 -35.44)"/><path class="d" d="M287.89,668l-16.67,20,12.22,10s-89.89,106.44-94.33,117.56a162.45,162.45,0,0,0,16.56,18s31-13.44,116.56-94.56C330,747.89,333,750.89,333,750.89l22.44-15.22S343.44,704.67,287.89,668Z" transform="translate(-36.44 -35.44)"/></svg>