<svg xmlns="http://www.w3.org/2000/svg" xmlns:xlink="http://www.w3.org/1999/xlink" viewBox="0 0 106.75 106.75"><defs><style>.a{fill:url(#a);}.b{fill:url(#b);}.c,.h{font-size:12px;font-family:SourceSansPro-Regular, Source Sans Pro;}.c,.g{fill:#fff;}.d{letter-spacing:0.01em;}.e{letter-spacing:0em;}.f,.g{font-size:9px;font-family:SourceSansPro-Light, Source Sans Pro;}.i{letter-spacing:-0.01em;}.j{letter-spacing:-0.04em;}.k{letter-spacing:0em;}.l{letter-spacing:0em;}</style><linearGradient id="a" x1="50.31" y1="14.96" x2="50.31" y2="68.33" gradientUnits="userSpaceOnUse"><stop offset="0" stop-color="#fbe12b"/><stop offset="1" stop-color="#be9a1a"/></linearGradient><linearGradient id="b" x1="66" y1="14.96" x2="66" y2="121.71" gradientUnits="userSpaceOnUse"><stop offset="0" stop-color="#51a7f9"/><stop offset="1" stop-color="#0365c0"/></linearGradient></defs><title>90PctAppLayer</title><path class="a" d="M66,68.33,34.63,25.15A51.14,51.14,0,0,1,66,15Z" transform="translate(-12.63 -14.96)"/><path class="b" d="M66,68.33V15A53.37,53.37,0,1,1,12.63,68.33a51.76,51.76,0,0,1,22-43.18Z" transform="translate(-12.63 -14.96)"/><text class="c" transform="translate(30.81 84.38)">Ap<tspan class="d" x="13.12" y="0">p</tspan><tspan x="19.85" y="0">-la</tspan><tspan class="e" x="32.78" y="0">y</tspan><tspan x="38.34" y="0">er</tspan><tspan class="f"><tspan x="16.29" y="10.8">90%</tspan></tspan></text><text class="g" transform="translate(34.77 24.37)">10%<tspan class="h"><tspan x="-27.47" y="14.4">N</tspan><tspan class="i" x="-19.76" y="14.4">e</tspan><tspan x="-13.98" y="14.4">t</tspan><tspan class="e" x="-9.92" y="14.4">w</tspan><tspan x="-1.35" y="14.4">or</tspan><tspan class="j" x="9.31" y="14.4">k</tspan><tspan x="14.73" y="14.4">-la</tspan><tspan class="k" x="27.66" y="14.4">y</tspan><tspan class="l" x="33.22" y="14.4">er</tspan></tspan></text></svg>